<svg width="48" height="27" viewBox="0 0 48 27" fill="none" xmlns="http://www.w3.org/2000/svg">
<g filter="url(#filter0_f_701_3378)">
<path d="M10.6328 12.438C10.6795 12.4473 10.7215 12.452 10.7588 12.452C10.8055 12.452 10.8522 12.452 10.8988 12.452H11.1508C11.4028 12.452 11.6408 12.4193 11.8648 12.354C12.0982 12.2793 12.2988 12.1767 12.4668 12.046C12.6442 11.906 12.7842 11.7333 12.8868 11.528C12.9895 11.3227 13.0408 11.0893 13.0408 10.828C13.0408 10.296 12.8728 9.89933 12.5368 9.638C12.2008 9.36733 11.7808 9.232 11.2768 9.232C10.9595 9.232 10.6795 9.29267 10.4368 9.414C10.2035 9.526 10.0075 9.68 9.84882 9.876C9.69949 10.072 9.58749 10.3007 9.51282 10.562C9.43816 10.8233 9.40082 11.0987 9.40082 11.388H8.21082C8.22949 10.912 8.30416 10.478 8.43482 10.086C8.57482 9.694 8.77082 9.358 9.02282 9.078C9.27482 8.798 9.58749 8.57867 9.96082 8.42C10.3435 8.26133 10.7822 8.182 11.2768 8.182C11.7062 8.182 12.1028 8.238 12.4668 8.35C12.8402 8.45267 13.1622 8.61133 13.4328 8.826C13.7035 9.04067 13.9135 9.316 14.0628 9.652C14.2215 9.988 14.3008 10.3847 14.3008 10.842C14.3008 11.29 14.1702 11.6867 13.9088 12.032C13.6475 12.3773 13.3208 12.6387 12.9288 12.816V12.844C13.5355 12.9747 13.9835 13.2593 14.2728 13.698C14.5715 14.1367 14.7208 14.6547 14.7208 15.252C14.7208 15.7467 14.6275 16.1853 14.4408 16.568C14.2635 16.9413 14.0208 17.254 13.7128 17.506C13.4048 17.758 13.0408 17.9493 12.6208 18.08C12.2102 18.2013 11.7715 18.262 11.3048 18.262C10.8008 18.262 10.3435 18.192 9.93282 18.052C9.52216 17.912 9.17216 17.7067 8.88282 17.436C8.59349 17.156 8.36949 16.8153 8.21082 16.414C8.06149 16.0127 7.99149 15.5553 8.00082 15.042H9.19082C9.20949 15.686 9.39616 16.2133 9.75082 16.624C10.1055 17.0253 10.6235 17.226 11.3048 17.226C11.5942 17.226 11.8695 17.184 12.1308 17.1C12.3922 17.0067 12.6208 16.8807 12.8168 16.722C13.0128 16.554 13.1668 16.3533 13.2788 16.12C13.4002 15.8773 13.4608 15.6067 13.4608 15.308C13.4608 15 13.4048 14.7293 13.2928 14.496C13.1808 14.2533 13.0315 14.0527 12.8448 13.894C12.6582 13.726 12.4342 13.6047 12.1728 13.53C11.9208 13.446 11.6455 13.404 11.3468 13.404C11.0948 13.404 10.8568 13.418 10.6328 13.446V12.438Z" fill="#50575E"/>
<path d="M16.5221 16.554H18.0761V18.108H16.5221V16.554Z" fill="#50575E"/>
<path d="M21.1046 13.222C21.1046 13.5953 21.1139 14.0153 21.1326 14.482C21.1606 14.9393 21.2353 15.3733 21.3566 15.784C21.4873 16.1853 21.6926 16.526 21.9726 16.806C22.2526 17.086 22.6446 17.226 23.1486 17.226C23.6526 17.226 24.0446 17.086 24.3246 16.806C24.6046 16.526 24.8053 16.1853 24.9266 15.784C25.0573 15.3733 25.1319 14.9393 25.1506 14.482C25.1786 14.0153 25.1926 13.5953 25.1926 13.222C25.1926 12.9793 25.1879 12.7133 25.1786 12.424C25.1786 12.1253 25.1553 11.8313 25.1086 11.542C25.0713 11.2433 25.0106 10.954 24.9266 10.674C24.8519 10.394 24.7353 10.1513 24.5766 9.946C24.4273 9.73133 24.2359 9.55867 24.0026 9.428C23.7693 9.29733 23.4846 9.232 23.1486 9.232C22.8126 9.232 22.5279 9.29733 22.2946 9.428C22.0613 9.55867 21.8653 9.73133 21.7066 9.946C21.5573 10.1513 21.4406 10.394 21.3566 10.674C21.2819 10.954 21.2213 11.2433 21.1746 11.542C21.1373 11.8313 21.1139 12.1253 21.1046 12.424C21.1046 12.7133 21.1046 12.9793 21.1046 13.222ZM19.8446 13.236C19.8446 12.872 19.8539 12.494 19.8726 12.102C19.8913 11.71 19.9379 11.3273 20.0126 10.954C20.0873 10.5807 20.1946 10.226 20.3346 9.89C20.4746 9.554 20.6659 9.26 20.9086 9.008C21.1513 8.756 21.4546 8.55533 21.8186 8.406C22.1919 8.25667 22.6353 8.182 23.1486 8.182C23.6619 8.182 24.1006 8.25667 24.4646 8.406C24.8379 8.55533 25.1459 8.756 25.3886 9.008C25.6313 9.26 25.8226 9.554 25.9626 9.89C26.1026 10.226 26.2099 10.5807 26.2846 10.954C26.3593 11.3273 26.4059 11.71 26.4246 12.102C26.4433 12.494 26.4526 12.872 26.4526 13.236C26.4526 13.6 26.4433 13.978 26.4246 14.37C26.4059 14.762 26.3593 15.1447 26.2846 15.518C26.2099 15.8913 26.1026 16.246 25.9626 16.582C25.8226 16.9087 25.6313 17.198 25.3886 17.45C25.1459 17.702 24.8426 17.9027 24.4786 18.052C24.1146 18.192 23.6713 18.262 23.1486 18.262C22.6353 18.262 22.1919 18.192 21.8186 18.052C21.4546 17.9027 21.1513 17.702 20.9086 17.45C20.6659 17.198 20.4746 16.9087 20.3346 16.582C20.1946 16.246 20.0873 15.8913 20.0126 15.518C19.9379 15.1447 19.8913 14.762 19.8726 14.37C19.8539 13.978 19.8446 13.6 19.8446 13.236Z" fill="#50575E"/>
<path d="M29.3739 10.996C29.3739 11.2013 29.3832 11.4253 29.4019 11.668C29.4299 11.9013 29.4859 12.1207 29.5699 12.326C29.6539 12.522 29.7706 12.69 29.9199 12.83C30.0786 12.9607 30.2886 13.026 30.5499 13.026C30.8206 13.026 31.0352 12.9607 31.1939 12.83C31.3526 12.6993 31.4739 12.536 31.5579 12.34C31.6512 12.1347 31.7119 11.9107 31.7399 11.668C31.7679 11.4253 31.7819 11.1967 31.7819 10.982C31.7819 10.7767 31.7679 10.5573 31.7399 10.324C31.7212 10.0813 31.6699 9.862 31.5859 9.666C31.5019 9.46067 31.3806 9.29267 31.2219 9.162C31.0726 9.022 30.8626 8.952 30.5919 8.952C30.3306 8.952 30.1206 9.022 29.9619 9.162C29.8032 9.29267 29.6772 9.46067 29.5839 9.666C29.4999 9.862 29.4439 10.0813 29.4159 10.324C29.3879 10.5573 29.3739 10.7813 29.3739 10.996ZM28.3239 11.024C28.3239 10.6413 28.3612 10.282 28.4359 9.946C28.5106 9.60067 28.6366 9.29733 28.8139 9.036C28.9912 8.77467 29.2246 8.56933 29.5139 8.42C29.8032 8.26133 30.1626 8.182 30.5919 8.182C31.0306 8.182 31.3899 8.25667 31.6699 8.406C31.9592 8.55533 32.1879 8.756 32.3559 9.008C32.5332 9.26 32.6546 9.55867 32.7199 9.904C32.7946 10.24 32.8319 10.5993 32.8319 10.982C32.8319 11.346 32.7899 11.7007 32.7059 12.046C32.6312 12.382 32.5006 12.6807 32.3139 12.942C32.1366 13.194 31.9079 13.3993 31.6279 13.558C31.3479 13.7167 31.0026 13.796 30.5919 13.796C30.1719 13.796 29.8172 13.726 29.5279 13.586C29.2386 13.4367 29.0052 13.236 28.8279 12.984C28.6506 12.732 28.5199 12.438 28.4359 12.102C28.3612 11.766 28.3239 11.4067 28.3239 11.024ZM36.2899 15.476C36.2899 15.6813 36.2992 15.9053 36.3179 16.148C36.3459 16.3813 36.4019 16.6007 36.4859 16.806C36.5699 17.002 36.6866 17.17 36.8359 17.31C36.9946 17.4407 37.2046 17.506 37.4659 17.506C37.7366 17.506 37.9512 17.4407 38.1099 17.31C38.2686 17.1793 38.3899 17.016 38.4739 16.82C38.5672 16.6147 38.6279 16.3907 38.6559 16.148C38.6839 15.9053 38.6979 15.6767 38.6979 15.462C38.6979 15.2567 38.6839 15.0373 38.6559 14.804C38.6372 14.5613 38.5859 14.342 38.5019 14.146C38.4179 13.9407 38.2966 13.7727 38.1379 13.642C37.9886 13.502 37.7786 13.432 37.5079 13.432C37.2466 13.432 37.0366 13.502 36.8779 13.642C36.7192 13.7727 36.5932 13.9407 36.4999 14.146C36.4159 14.342 36.3599 14.5613 36.3319 14.804C36.3039 15.0373 36.2899 15.2613 36.2899 15.476ZM35.2399 15.504C35.2399 15.1213 35.2772 14.762 35.3519 14.426C35.4266 14.0807 35.5526 13.7773 35.7299 13.516C35.9072 13.2547 36.1406 13.0493 36.4299 12.9C36.7192 12.7413 37.0786 12.662 37.5079 12.662C37.9466 12.662 38.3059 12.7367 38.5859 12.886C38.8752 13.0353 39.1039 13.236 39.2719 13.488C39.4492 13.74 39.5706 14.0387 39.6359 14.384C39.7106 14.72 39.7479 15.0793 39.7479 15.462C39.7479 15.826 39.7059 16.1807 39.6219 16.526C39.5472 16.862 39.4166 17.1607 39.2299 17.422C39.0526 17.674 38.8239 17.8793 38.5439 18.038C38.2639 18.1873 37.9186 18.262 37.5079 18.262C37.0879 18.262 36.7332 18.192 36.4439 18.052C36.1546 17.9027 35.9212 17.7067 35.7439 17.464C35.5666 17.212 35.4359 16.918 35.3519 16.582C35.2772 16.246 35.2399 15.8867 35.2399 15.504ZM37.1999 8H38.3899L30.8719 18.402H29.6679L37.1999 8Z" fill="#50575E"/>
</g>
<path d="M24.5808 4.92041C26.6603 4.92041 28.3308 6.59093 28.3308 8.67041V10.188C29.3102 10.3131 30.0808 11.16 30.0808 12.1704V18.2954C30.0808 19.3905 29.1759 20.2954 28.0808 20.2954H21.0808C19.9857 20.2954 19.0808 19.3905 19.0808 18.2954V12.1704C19.0808 11.16 19.8514 10.3131 20.8308 10.188V8.67041C20.8308 6.59093 22.5013 4.92041 24.5808 4.92041ZM24.5808 7.17041C23.7619 7.17041 23.0808 7.85145 23.0808 8.67041V10.1704H26.0808V8.67041C26.0808 7.85145 25.3998 7.17041 24.5808 7.17041Z" fill="#646970" stroke="white" stroke-width="0.5"/>
<defs>
<filter id="filter0_f_701_3378" x="0" y="0" width="47.7479" height="26.4019" filterUnits="userSpaceOnUse" color-interpolation-filters="sRGB">
<feFlood flood-opacity="0" result="BackgroundImageFix"/>
<feBlend mode="normal" in="SourceGraphic" in2="BackgroundImageFix" result="shape"/>
<feGaussianBlur stdDeviation="4" result="effect1_foregroundBlur_701_3378"/>
</filter>
</defs>
</svg>
