<svg width="30" height="37" viewBox="0 0 30 37" fill="none" xmlns="http://www.w3.org/2000/svg">
<path d="M8.21429 16.4286V11.5C8.21429 7.88058 11.1663 4.92857 14.7857 4.92857C18.4051 4.92857 21.3571 7.88058 21.3571 11.5V16.4286H8.21429ZM29.5714 18.8929C29.5714 17.5324 28.4676 16.4286 27.1071 16.4286H26.2857V11.5C26.2857 5.18527 21.1004 0 14.7857 0C8.47098 0 3.28571 5.18527 3.28571 11.5V16.4286H2.46429C1.10379 16.4286 0 17.5324 0 18.8929V33.6786C0 35.0391 1.10379 36.1429 2.46429 36.1429H27.1071C28.4676 36.1429 29.5714 35.0391 29.5714 33.6786V18.8929Z" fill="#A7AAAD"/>
</svg>
