<svg xmlns="http://www.w3.org/2000/svg" width="40" height="40" fill="none"><g clip-path="url(#a)"><path fill="#996" d="M33.716 13.57c.293-.177.351-1.26.381-1.582.088-.732.995-1.054 1.581-.674 1.025.732 1.552 2.139 1.698 3.339.147 1.23.03 2.87-.849 3.836-.937 1.054-3.309 1.377-4.714 1.23-.38-.03-.732-.117-1.084-.176l-.673-6.032.732.146c.732.146 2.226.293 2.9-.088z"/><path fill="#c0c0a0" d="M36 12.398c-.176-.234-.38-.468-.615-.615-.234-.176-.673-.029-.703.264l-.03.204c.44-.146.938-.028 1.348.147m.82 4.13c.176-.938.088-2.022-.234-2.958-.234-.293-.47-.527-.908-.703-.557-.235-.85-.147-1.112.088-.03.234-.09.41-.147.585 1.523.498 2.167 1.962 2.401 3.016zm-4.451-2.168a8 8 0 0 1-1.64-.176l.527 4.861c.703.147 1.523.147 2.255.06.527-1.875 0-4.071-1.171-4.774zm1.64-.322c-.205.117-.499.205-.85.263 1.055 1.113 1.377 3.134.995 4.715.88-.175 1.611-.498 1.992-.907.088-.089.146-.206.234-.293 0-1.67-.673-3.456-2.284-3.807-.03.03-.03.03-.059.03z"/><path fill="#fbfac4" d="M33.716 17.2a6.2 6.2 0 0 1-2.021.147 4 4 0 0 1-.644-.117l-.352-3.016a8 8 0 0 0 1.64.175c.762.469 1.26 1.582 1.348 2.812zm2.138-4.245.087.526c.059.352.059.762.03 1.172a3.43 3.43 0 0 0-1.552-1.113c.058-.175.117-.351.146-.585.233-.206.556-.323 1.112-.088zm-.44-1.143c.088.147.146.293.205.44a1.9 1.9 0 0 0-.995-.03l.029-.204c.029-.294.468-.44.703-.264l.059.03zm-1.405 2.226c-.205.117-.499.205-.85.264.645.673.995 1.669 1.113 2.723.41-.147.79-.351 1.025-.644.235-.235-.38-2.197-1.23-2.372-.03.03-.03.03-.058.03"/><path fill="#996" d="M6.248 13.57c-.293-.177-.351-1.26-.381-1.582-.088-.732-.996-1.054-1.581-.674-1.026.732-1.552 2.139-1.699 3.339-.146 1.23-.029 2.87.85 3.836.937 1.054 3.309 1.377 4.714 1.23.38-.03.732-.117 1.084-.176l.673-6.032-.732.146c-.732.146-2.226.293-2.9-.088z"/><path fill="#c0c0a0" d="M3.964 12.398c.176-.234.38-.468.615-.615.234-.176.673-.029.703.264l.029.204c-.44-.146-.937-.028-1.347.147m-.82 4.13c-.176-.938-.088-2.022.234-2.958.235-.293.469-.527.908-.703.557-.235.85-.147 1.112.088.03.234.09.41.147.585-1.523.498-2.167 1.962-2.402 3.016zm4.451-2.168c.527 0 1.084-.059 1.64-.176l-.527 4.861c-.703.147-1.523.147-2.255.06-.527-1.875 0-4.071 1.171-4.774zm-1.64-.322c.205.117.499.205.85.263-1.055 1.113-1.377 3.134-.996 4.715-.878-.175-1.61-.498-1.991-.907-.088-.089-.146-.206-.234-.293 0-1.67.673-3.456 2.284-3.807.029.03.029.03.059.03z"/><path fill="#fbfac4" d="M6.248 17.2a6.2 6.2 0 0 0 2.02.147c.235-.03.44-.059.645-.117l.351-3.016a8 8 0 0 1-1.64.175c-.76.469-1.259 1.582-1.347 2.812zM4.11 12.956l-.088.526a5 5 0 0 0-.028 1.172c.38-.469.878-.878 1.551-1.113-.058-.175-.117-.351-.147-.585-.233-.206-.555-.323-1.111-.088zm.44-1.143c-.088.147-.146.293-.205.44.322-.088.644-.118.995-.03l-.03-.204c-.028-.294-.467-.44-.702-.264l-.059.03zm1.405 2.226c.205.117.499.205.85.264-.645.673-.996 1.669-1.113 2.723-.41-.147-.79-.351-1.025-.644-.234-.235.38-2.197 1.23-2.372.029.03.029.03.058.03"/><path fill="#8ed41e" d="M9.498 12.398c-1.025-.088-2.02.117-3.016.264l.878-.85c.85-.82 1.992-1.552 3.076-2.079 1.61-.82 3.455-1.435 5.3-1.61-1.29-.557-2.753-.82-4.13-1.143C16.909 5.868 23.7 5.458 28.563 9.587c2.783 2.372 4.305 6.765 4.305 10.747 0 15.023-25.594 15.023-25.594 0 0-2.02.498-3.953 1.435-5.71-.351.088-.673.205-1.025.351l-1.551.644 1.111-1.259a9 9 0 0 1 2.314-1.903z"/><path fill="#70a91b" d="M20.978 7.771c2.49.293 4.92 1.113 6.94 2.84 2.459 2.08 3.777 5.945 3.777 9.43 0 6.383-5.271 9.693-10.718 9.868z"/><path fill="#a1e141" d="M11.548 11.022c1.933-1.289 5.096-1.699 8.903-1.494-.674-.79-1.289-1.288-2.196-1.728 1.727-.058 3.103.323 6.53 1.494-2.957-1.728-6.588-2.518-9.986-2.138 1.23.352 2.401.908 3.485 1.64-3.485-.38-7.497 1.289-9.108 2.665 1.055-.117 1.991.088 2.988.527-1.406.498-2.314.937-3.193 1.786 1.523-.761 2.724-1.405 4.656-1.815-.761-.264-1.171-.732-2.08-.937"/><path fill="#70a91b" d="M20.04 7.478c3.515 0 6.355 2.753 6.355 6.18 0 3.396-2.84 6.178-6.355 6.178-3.514 0-6.353-2.753-6.353-6.179-.001-3.397 2.84-6.179 6.353-6.179"/><path fill="#70a91b" d="M9.967 19.426c.205-.38 19.473-.527 19.854 0 .673.878.293 1.728 0 2.46H9.967c-.176-.791-.469-1.64 0-2.46"/><path fill="#4b7113" d="M10.23 19.982c.206-.498 18.976-.703 19.357 0 .644 1.2.263 2.372 0 3.368H10.23c-.176-1.084-.44-2.226 0-3.368"/><path fill="#70a91b" d="M25.839 7.215c-.264-5.008-7-5.535-8.756-1.61 3.104-1.7 6.266-1.084 8.756 1.61"/><path fill="#85c51f" d="M22.09 3.057c-1.961-.293-4.099.556-4.977 2.518 1.17-.644 2.372-.937 3.514-.937.234-.44.79-1.288 1.493-1.581z"/><path fill="#d3e8ef" d="M20.04 6.834a5.7 5.7 0 0 1 5.71 5.71 5.7 5.7 0 0 1-5.71 5.71 5.7 5.7 0 0 1-5.71-5.71 5.7 5.7 0 0 1 5.71-5.71"/><path fill="#fff" d="M16.439 8.298c1.903-1.58 4.568-1.58 5.915.059 1.347 1.61.879 4.217-1.025 5.827-1.904 1.582-4.568 1.582-5.916-.058-1.346-1.611-.877-4.217 1.026-5.828"/><path fill="#0d82df" d="M20.187 10.612c2.225 0 4.012 1.67 4.012 3.748 0 2.08-1.788 3.748-4.012 3.748-2.225 0-4.012-1.669-4.012-3.748s1.786-3.748 4.012-3.748"/><path fill="#0399ed" d="M20.187 10.612c1.083 0 2.079.41 2.782 1.054a5.3 5.3 0 0 1-1.64 2.518c-1.582 1.318-3.69 1.523-5.125.645-.03-.147-.03-.293-.03-.47 0-2.078 1.787-3.747 4.013-3.747"/><path fill="#232323" d="M20.187 11.959c1.405 0 2.577 1.083 2.577 2.4 0 1.319-1.142 2.402-2.577 2.402-1.406 0-2.577-1.083-2.577-2.401s1.142-2.401 2.577-2.401"/><path fill="#323232" d="M20.187 11.959c.907 0 1.698.439 2.167 1.083-.264.41-.615.79-1.025 1.113-1.055.879-2.344 1.26-3.485 1.171a2.3 2.3 0 0 1-.234-.995c0-1.318 1.142-2.402 2.577-2.402z"/><path fill="#fff" d="M17.932 10.817c1.054 0 1.903.79 1.903 1.786s-.85 1.787-1.903 1.787c-1.054 0-1.903-.791-1.903-1.787s.849-1.786 1.903-1.786"/><path fill="#9caeb3" d="M6.716 21.388c8.844-1.318 17.718-1.2 26.561 0 .644 4.627.293 9.02 0 13.44-8.843.352-17.717.411-26.56 0-.528-4.48-.586-8.96 0-13.44"/><path fill="#d3e8ef" d="M9.264 33.922c7.175.262 14.32.234 21.494 0-2.577-1.465-5.154-2.87-8.053-3.66-.937.439-1.932.79-2.928 1.083-.147.029-.147.029-.293 0-.82-.264-1.64-.586-2.431-.937-2.811.82-5.359 2.02-7.818 3.543zM7.566 22.91c-.381 3.543-.323 7.116.059 10.659a35.6 35.6 0 0 1 8.228-3.807c-3.339-1.757-5.681-4.275-8.287-6.852m24.129-.703c-7.818-.937-15.666-1.025-23.485 0 3.221 3.601 6.765 6.56 11.48 8.111 5.006-1.434 8.462-4.568 12.005-8.11m.674 11.362c.234-3.543.468-7.086.088-10.63-2.635 2.607-5.447 5.095-8.727 6.823 3.046.908 5.887 2.255 8.669 3.807z"/><path fill="#fff" d="M9.264 33.921a306 306 0 0 0 10.396.176v-2.752c-.03 0-.059 0-.147-.03-.82-.263-1.639-.585-2.43-.937-2.811.82-5.359 2.02-7.819 3.543m-1.698-11.01c-.381 3.543-.323 7.116.059 10.659a35.6 35.6 0 0 1 8.228-3.807c-3.339-1.757-5.681-4.275-8.287-6.852m12.094-1.435a88 88 0 0 0-11.45.732c3.192 3.602 6.765 6.53 11.45 8.111z"/><path fill="#996" d="M14.682 23.584c-.03.117-.088.235-.146.352-.06.176-.176.35-.322.468-.352.264-.79.176-1.172.03-.85-.352-1.435-1.201-1.787-2.021-.41-.938-.439-1.61-.205-2.636 5.916-.322 11.978-.38 17.717-.03v.03h.088c.088.996 0 1.406-.234 2.226-.264.937-.82 2.079-1.757 2.518-.352.176-.761.264-1.084.03a1.4 1.4 0 0 1-.35-.47c-.206-.321-.264-.79-.323-1.141-.117.234-.263.38-.498.439-.38.088-.82.146-1.2.175-.381.03-.79.06-1.201.06-.615 0-1.289-.06-1.874-.235-.087.352-.234.673-.585.79-.38.118-.85.177-1.26.206-.439.029-.878.058-1.288.058-.674 0-1.435-.058-2.05-.321-.235-.088-.381-.264-.468-.498z"/><path fill="#c0c0a0" d="M24.609 19.572c.234 1.318.175 3.017-.205 3.104-.586.147-2.841.382-3.953-.028-.294-.556-.294-1.962-.264-3.104 1.523 0 3.045 0 4.422.028m-9.46.264c-.204.615-.409 1.318-.614 2.168-.117.527-.205 1.054-.293 1.434-.117.527-.38.615-.879.41-1.288-.556-1.961-2.723-1.903-4.041.878-.059 2.196-.117 3.69-.176 1.435-.03 3.045-.059 4.656-.059.146 1.611.146 3.544-.205 3.954-.616.205-3.016.498-4.188-.03-.527-.233-.322-2.195-.293-3.63zm9.694-.264c.175.703.38 1.435.585 2.373.117.585.176 1.142.264 1.522.117.586.351.674.82.44 1.142-.586 1.786-2.754 1.756-4.188a75 75 0 0 0-3.425-.147"/><path fill="#fbfac4" d="M20.187 20.363c1.376 0 2.753 0 4.012.03.205.732.205 2.05-.674 2.371-.937.089-2.284.117-3.075-.175-.204-.41-.263-1.318-.263-2.226m-5.067.088c1.26-.03 2.695-.059 4.13-.059.145 1.055.41 3.163-.908 3.28-.967.088-2.167.088-2.929-.234-.438-.205-.38-1.669-.322-2.958zm-3.601.176c.615-.059 1.434-.088 2.4-.117.118 0 .352 2.899.352 2.899-.117.527-.38.615-.879.41-1.025-.44-1.669-1.904-1.845-3.163zm14.173 2.84c.117.586.352.674.82.44.938-.47 1.523-1.992 1.699-3.31-.556-.058-1.23-.087-2.021-.117-.469.352-.557 2.782-.498 2.987"/><path fill="#fff" d="M17.668 20.422c.06 1.142 0 2.284-.145 2.371-.293.177-1.377.41-1.904-.029-.205-.146-.176-1.259-.146-2.313.702-.03 1.435-.03 2.225-.059zm4.92-.03c.03.85-.03 1.64-.146 1.699-.264.146-1.289.322-1.816-.03-.175-.116-.175-.908-.146-1.698h2.109zm-9.253.147c-.03.322-.03.703-.03 1.083v1.171c0 .44-.117.528-.351.323-.468-.352-.879-1.464-1.054-2.49.41-.029.908-.058 1.435-.087m14.524.03c-.381-.03-.82-.06-1.318-.06 0 .322.03.674.03 1.055v1.259c0 .469.087.557.322.351.41-.38.79-1.493.966-2.606"/><path fill="#85c51f" d="M8.474 34.156c-.323 1.464-1.788 2.43-3.25 2.371-2.021-.088-5.155-2.313-5.096-4.51.029-1.229.937-2.342 1.874-3.045.908-.703 2.43-1.434 3.602-1.113 1.171.323 1.99 1.933 2.372 2.987.35.908.703 2.344.468 3.31z"/><path fill="#70a91b" d="M7.976 34.009c.029-.176.058-.352.058-.557-.38-1.61-1.288-3.455-2.313-3.747-1.581-.47-4.773 1.64-4.598 3.806.879 1.347 2.753 2.46 4.1 2.518 1.23.059 2.49-.761 2.753-1.991z"/><path fill="#5d8d17" d="M6.512 32.369c.41-.82-.263-2.255-1.289-2.138-1.083.147-3.426 1.757-3.426 3.017 0 .79 1.083 1.347 2.225 1.025.85-.235 2.167-1.23 2.49-1.904m.907 2.05c.205-.498-.088-1.376-.673-1.289-.615.118-2.08 1.171-2.02 1.757.028.47.848.88 1.493.645.468-.176 1.024-.703 1.2-1.113"/><path fill="#2c440c" d="M4.9 28.563c.03.527-.995.995-1.405.614-.351-.673-.263-1.493.03-1.669.322-.175 1.113.147 1.376 1.055M2.91 29.53c.116.584-.674 1.083-1.055.819-.498-.498-.673-1.376-.44-1.581.235-.205 1.084.117 1.495.761M1.416 30.993c.177.38-.205.908-.644.879C.304 31.52-.135 30.7.04 30.495c.176-.234.966 0 1.376.498M8.913 25.546c.234-.439-.41-.733-.937-.937-.528-.176-.791-.176-.996.263-.235.44-.352 1.113.205 1.288.527.176 1.523-.175 1.757-.614z"/><path fill="#2c440c" d="M9.381 23.907c.06.497-.644.761-1.23.878-.556.118-.79.059-.848-.44-.06-.498.087-1.288.673-1.405.556-.117 1.346.469 1.405.967"/><path fill="#2c440c" d="M9.498 22.267c.06.468-.644.703-1.229.82-.556.117-.791.059-.85-.439-.059-.469.088-1.2.645-1.318.557-.117 1.347.44 1.405.907zM4.9 21.183c.088.382.82.293 1.377.177.556-.147.762-.264.644-.645-.088-.38-.44-.908-.994-.761-.557.146-1.114.85-1.026 1.26z"/><path fill="#85c51f" d="m4.403 25.84.176.497-.38-.293a1.8 1.8 0 0 1-.44-.585c.029.234.059.38.117.585-.556-.908-1.055-1.903-.733-3.22.294-1.202 1.495-1.758 2.344-1.992.527-.146 1.112-.234 1.639-.176.322.03.879.117 1.113.41.234.294.351.908.41 1.318.087.644.059 1.318-.029 1.962-.088.585-.264 1.142-.556 1.61-.235.352-.499.615-.85.762a2.07 2.07 0 0 1-1.26.117c-.585-.117-1.112-.468-1.58-.966z"/><path fill="#a1e141" d="M7.946 21.476c.352.41.528 2.138.117 3.397-.117.03-.263.059-.41.059-.644.059-1.26-.234-1.669-.585.03.175.088.292.147.38-.352-.146-.644-.585-.85-1.083.03.41.088.586.147.82-.44-.146-.79-.644-1.055-1.17-.234-.47-.205-1.144.205-1.436 1.084-.79 2.929-.85 3.338-.351z"/><path fill="#85c51f" d="M31.52 34.156c.322 1.464 1.786 2.43 3.25 2.371 2.02-.088 5.154-2.313 5.095-4.51-.029-1.229-.937-2.342-1.874-3.045-.908-.703-2.431-1.434-3.602-1.113-1.17.323-1.99 1.933-2.372 2.987-.351.908-.703 2.344-.468 3.31z"/><path fill="#70a91b" d="M31.989 34.009c-.03-.176-.06-.352-.06-.557.38-1.61 1.289-3.455 2.314-3.747 1.58-.47 4.772 1.64 4.597 3.806-.879 1.347-2.753 2.46-4.1 2.518-1.23.059-2.489-.761-2.753-1.991v-.03z"/><path fill="#5d8d17" d="M33.482 32.369c-.411-.82.262-2.255 1.288-2.138 1.084.147 3.426 1.757 3.426 3.017 0 .79-1.083 1.347-2.225 1.025-.85-.235-2.167-1.23-2.49-1.904m-.908 2.05c-.205-.498.087-1.376.673-1.289.615.118 2.079 1.171 2.02 1.757-.029.47-.848.88-1.493.645-.468-.176-1.025-.703-1.2-1.113"/><path fill="#2c440c" d="M35.063 28.563c-.03.527.996.995 1.405.614.352-.673.264-1.493-.029-1.669-.322-.175-1.113.147-1.376 1.055M37.054 29.53c-.116.584.673 1.083 1.055.819.497-.498.673-1.376.44-1.581-.236-.205-1.085.117-1.495.761M38.548 30.993c-.177.38.205.908.644.879.468-.352.907-1.172.732-1.377-.176-.234-.966 0-1.376.498M31.05 25.546c-.234-.439.41-.733.938-.937.528-.176.79-.176.996.263.234.44.351 1.113-.206 1.288-.526.176-1.522-.175-1.757-.614z"/><path fill="#2c440c" d="M30.612 23.907c-.059.497.644.761 1.23.878.556.118.79.059.849-.44.058-.498-.088-1.288-.674-1.405-.556-.117-1.347.469-1.406.967"/><path fill="#2c440c" d="M30.466 22.267c-.06.468.644.703 1.229.82.556.117.79.059.849-.439.06-.469-.088-1.2-.644-1.318-.557-.117-1.347.44-1.406.907zM35.092 21.183c-.088.382-.82.293-1.377.177-.555-.147-.761-.264-.644-.645.089-.38.44-.908.995-.761.557.146 1.113.85 1.026 1.26z"/><path fill="#85c51f" d="m35.56 25.84-.175.497.38-.293c.177-.146.323-.351.44-.585a3.4 3.4 0 0 1-.117.585c.556-.908 1.055-1.903.732-3.22-.293-1.202-1.494-1.758-2.343-1.992-.527-.146-1.112-.234-1.64-.176-.321.03-.878.117-1.112.41-.234.294-.351.908-.41 1.318-.087.644-.059 1.318.03 1.962.087.585.262 1.142.556 1.61.234.352.498.615.848.762.411.175.82.205 1.26.117.585-.117 1.112-.468 1.582-.966z"/><path fill="#a1e141" d="M32.017 21.476c-.351.41-.527 2.138-.117 3.397.117.03.264.059.41.059.644.059 1.26-.234 1.67-.585a.94.94 0 0 1-.147.38c.351-.146.644-.585.849-1.083-.029.41-.088.586-.146.82.44-.146.79-.644 1.054-1.17.234-.47.205-1.144-.205-1.436-1.083-.79-2.928-.85-3.338-.351z"/></g><defs><clipPath id="a"><path fill="#fff" d="M0 0h40v40H0z"/></clipPath></defs></svg>