<svg xmlns="http://www.w3.org/2000/svg" width="40" height="40" fill="none"><g clip-path="url(#a)"><path fill="#6f4bbb" d="M11.117 32.863h7.042v6.17h-6.911c-1.09-.485-1.996-1.166-2.647-1.977.248-1.327 1.202-3.067 2.517-4.187z"/><path fill="#7d5dc2" d="M11.526 33.384c-.936.965-1.854 2.138-2.167 3.464.563.663 1.285 1.184 2.067 1.558h5.922v-5.023z"/><path fill="#9478cf" d="M9.898 35.481c-.184.26-.528 1.297-.545 1.362.563.663 1.285 1.185 2.067 1.558h3.156v-2.69a56 56 0 0 1-4.684-.236z"/><path fill="#5f3ea7" d="M11.082 37.724c.729.243 1.072.71 1.179 1.31H9.72c.17-.516.65-1.155 1.361-1.31"/><path fill="#6f4bbb" d="M11.07 37.997c-.396.107-.734.415-.947.776h.96v-.77z"/><path fill="#5f3ea7" d="M13.593 37.57c.977.273 1.45.918 1.57 1.464h-3.394c.225-.575.906-1.333 1.824-1.463"/><path fill="#6f4bbb" d="M13.575 37.838c-.533.094-1.06.473-1.374.935h1.393v-.93zM26.61 32.863h-7.042v6.17h6.911c1.09-.485 1.996-1.166 2.647-1.977-.248-1.327-1.202-3.067-2.517-4.187v-.006"/><path fill="#7d5dc2" d="M26.207 33.384c.936.965 1.854 2.138 2.168 3.464-.563.663-1.285 1.184-2.067 1.558h-5.922v-5.023z"/><path fill="#9478cf" d="M27.83 35.481c.184.26.527 1.297.545 1.362-.563.663-1.285 1.185-2.067 1.558H23.15v-2.69a56 56 0 0 0 4.685-.236z"/><path fill="#5f3ea7" d="M26.652 37.724c-.73.243-1.072.71-1.18 1.31h2.541c-.171-.516-.65-1.155-1.362-1.31"/><path fill="#6f4bbb" d="M26.663 37.997c.397.107.735.415.948.776h-.96v-.77z"/><path fill="#5f3ea7" d="M24.14 37.57c-.976.273-1.45.918-1.569 1.464h3.394c-.225-.575-.906-1.333-1.824-1.463"/><path fill="#6f4bbb" d="M24.159 37.838c.533.094 1.06.473 1.373.935h-1.391v-.93z"/><path fill="#5f3ea7" d="M.025 34.764c.048 1.125.296 2.002.793 2.546.776-.059 1.427-.923 1.723-1.658-.45-.782-1.326-1.136-2.516-.888"/><path fill="#6f4bbb" d="M.422 35.078c.017.657.195 1.326.55 1.823l.302-1.777a2.4 2.4 0 0 0-.852-.046"/><path fill="#5f3ea7" d="M1.98 35.362c.076 1.012.207 1.895.834 2.8 1.137-.242 2.031-.876 2.404-1.888-.563-1.273-1.889-1.45-3.245-.912z"/><path fill="#6f4bbb" d="m2.98 37.737.764-2.244c-.433-.09-.912-.024-1.374.124.071.77.201 1.445.61 2.114z"/><path fill="#5f3ea7" d="M5.71 36.185c.196 1.149 1.28 1.712 1.824 1.683.249-.421.492-.966.498-1.623l-.468-.397c-.723-.13-1.492-.077-1.86.337z"/><path fill="#6f4bbb" d="M7.34 37.488c.218-.32.355-.818.378-1.285l-.775-.125z"/><path fill="#6f4bbb" d="M8.032 20.81v15.434c-2.671.332-5.78.225-8.007-1.487.041-1.439.177-2.842.438-4.181.48-2.422 1.392-4.631 2.974-6.45 1.392-1.598 2.789-2.363 4.595-3.322z"/><path fill="#9478cf" d="M.783 34.403c1.398 1.071 4.737 1.403 6.497 1.184V22.06C2.743 24.47.943 28.92.783 34.404"/><path fill="#a58dd4" d="M.783 34.403c.704.544 1.913.894 3.162 1.083.183-3.441.16-8.617-.61-9.991C1.648 27.882.89 30.932.783 34.403"/><path fill="#9478cf" d="M3.94 32.105c.586 0 1.06.473 1.06 1.06 0 .586-.474 1.06-1.06 1.06s-1.06-.474-1.06-1.06.473-1.06 1.06-1.06"/><path fill="#6f4bbb" d="M6.474 8.777c-.308-2.008.03-3.05.444-4.88 1.274 1.06 2.091 1.824 3.643 2.606.308-1.937.995-3.78 1.996-5.49L13.148 0c2.274 1.717 4.217 3.091 5.715 5.36C20.368 3.09 22.305 1.712 24.578 0l.593 1.013c1 1.712 1.688 3.553 1.996 5.49 1.552-.782 2.369-1.546 3.642-2.606.415 1.824.752 2.866.444 4.88l2.814.775c-.563 7.338-1.131 13.586-1.842 20.924a530 530 0 0 1-.308 3.038c-.03.29-.385.811-1.89.83-7.33.491-15.006.491-22.338 0-1.498-.019-1.854-.54-1.89-.83q-.16-1.546-.313-3.091-.061-.63-.124-1.262c-.616-6.538-1.214-13.065-1.718-19.608l2.813-.776z"/><path fill="#9478cf" d="M13.457 1.54c-1.208 2.062-1.883 4.24-2.014 6.485a13.9 13.9 0 0 1-3.885-2.238c-.248 1.096-.195 2.523.143 3.766a53 53 0 0 0-2.938.758c.516 6.733 1.001 13.467 1.659 20.183.065.67.207 2.102.278 2.772.267.148.823.148 1.054.16 7.374.491 14.841.491 22.215 0 .23-.018.788-.018 1.054-.16.07-.652.213-2.12.278-2.772.658-6.722 1.143-13.455 1.658-20.183a53 53 0 0 0-2.937-.758c.338-1.244.39-2.671.142-3.766-1.208 1.006-2.635 1.77-3.885 2.238-.13-2.244-.805-4.423-2.013-6.485-2.47 1.866-4.081 3.216-5.407 5.922-1.333-2.706-2.937-4.056-5.414-5.922z"/><path fill="#a58dd4" d="M13.457 1.54c.183 2.997.936 6.319 2.345 7.705-1.889-.207-2.89-.427-4.358-1.22a13.9 13.9 0 0 1-3.886-2.238c.658 1.971 1.291 3.381 2.589 4.755-1.102-.024-1.735-.385-2.446-.99-1.025.238-1.985.48-2.938.759.516 6.733 1.001 13.467 1.659 20.183.065.67.207 2.102.278 2.772.267.148.823.148 1.054.16 3.684.248 7.397.367 11.11.367v-4.016c-5.72.45-10.962-8.576-4.945-14.51l-1.196.664c-.149-.954.153-2.143.544-3.11.787-1.877 2.866-3.275 5.597-3.6V7.456c-1.333-2.707-2.937-4.057-5.413-5.923z"/><path fill="#7d5dc2" d="M27.575 10.542c1.291-1.374 1.931-2.783 2.589-4.756.248 1.096.195 2.523-.143 3.766-.71.605-1.344.966-2.446.99m-2.173-.556c.64 0 1.16.52 1.16 1.16s-.52 1.16-1.16 1.16-1.16-.521-1.16-1.16c0-.64.52-1.16 1.16-1.16m4.229 2.611a.807.807 0 0 1 0 1.612.807.807 0 0 1 0-1.612m-7.705-3.352C23.34 7.86 24.093 4.537 24.27 1.54c1.208 2.062 1.883 4.24 2.013 6.485-1.469.793-2.47 1.013-4.358 1.22"/><path fill="#9478cf" d="M8.351 11.667a1.906 1.906 0 1 1 0 3.813 1.905 1.905 0 0 1-1.906-1.907c0-1.053.852-1.906 1.906-1.906M7.12 17.518c.42 0 .764.344.764.764s-.344.764-.764.764a.766.766 0 0 1-.764-.764c0-.42.343-.764.764-.764"/><path fill="#d3e8ef" d="M18.988 12.71a8.214 8.214 0 1 1 0 16.428 8.214 8.214 0 0 1 0-16.429"/><path fill="#fff" d="M10.988 19.052a8.22 8.22 0 0 1 6.289-6.165c3.393-.26 6.13 2.114 6.13 5.342 0 3.25-2.784 6.135-6.213 6.437s-6.212-2.084-6.212-5.335q-.002-.142.006-.285z"/><path fill="#ea4e64" d="M21.51 17.773a4.63 4.63 0 1 1 0 9.263 4.63 4.63 0 1 1 0-9.263"/><path fill="#ec6277" d="M21.51 17.773c.676 0 1.316.142 1.896.402v.054c0 3.168-2.641 5.987-5.958 6.408a4.6 4.6 0 0 1-.575-2.239 4.63 4.63 0 0 1 4.631-4.63z"/><path fill="#232323" d="M21.51 19.395a3.009 3.009 0 1 1 0 6.018 3.009 3.009 0 0 1 0-6.018"/><path fill="#323232" d="M21.51 19.395c.61 0 1.18.183 1.653.492-.575 1.925-2.102 3.547-4.057 4.324a3.01 3.01 0 0 1 2.404-4.815"/><path fill="#fff" d="M18.23 18.933c1.048 0 1.895.847 1.895 1.895a1.893 1.893 0 0 1-1.895 1.895 1.893 1.893 0 0 1-1.895-1.895c0-1.048.846-1.895 1.895-1.895"/><path fill="#6f4bbb" d="M9.323 24.684c2.333-1.29 5.857.965 5.596 4.614-2.232-.693-4.637-2.796-5.596-4.614"/><path fill="#a58dd4" d="M9.323 24.684c2.12.042 4.471 1.244 5.596 4.614-2.67-.308-5.152-2.346-5.596-4.614"/><path fill="#7d5dc2" d="M10.43 27.734c.314-.107 1.771-.077 1.89.083.141.189-.25 1.184-.658 1.824-.539-.432-.977-1.024-1.232-1.907"/><path fill="#fff" d="M10.004 27.379c.313-.107 1.77-.077 1.889.082.142.19-.249 1.185-.658 1.824-.538-.431-.976-1.024-1.231-1.906"/><path fill="#6f4bbb" d="M10.436 26.87c.1 2.072 2.795 4.067 5.36 3.321.142.598-.273.954-.687 1.043-2.327.207-4.566-1.262-5.312-3.145-.207-.515.035-1.149.64-1.214v-.006M9.998 30.748c.639 1.214 1.646 1.777 2.754 1.966-1.575.706-2.968-.23-2.754-1.966"/><path fill="#9478cf" d="M11.058 31.045c1.261.704 2.47.935 3.856.8-1.008.68-3.003.752-3.856-.8"/><path fill="#5f3ea7" d="M21.825 10.376c-2.547-4.394-9.233-1.835-8.558 3.104 1.676-2.773 4.903-3.667 8.558-3.104"/><path fill="#6f4bbb" d="M21.825 10.376c-1.44-2.481-4.466-2.641-6.486-1.273-.011.575.166.995.468 1.332 1.64-.8 3.785-1.119 6.023-.059zM35.138 27.1c2.665 0 4.862 2.145 4.862 4.821 0 2.677-2.191 4.82-4.862 4.82-2.666 0-4.862-2.144-4.862-4.82s2.191-4.82 4.862-4.82"/><path fill="#9478cf" d="M35.138 27.805c2.292 0 4.152 1.842 4.152 4.11s-1.86 4.11-4.152 4.11-4.152-1.84-4.152-4.11c0-2.268 1.86-4.11 4.152-4.11"/><path fill="#a58dd4" d="M35.138 27.805c1.629 0 3.038.93 3.72 2.28.147 2.145-2.47 3.726-4.211 2.986-1.291-.699-2.174-2.055-2.174-3.613 0-.254.024-.51.071-.752.712-.563 1.61-.9 2.589-.9h.005"/><path fill="#2b3039" d="M33.445 31.281c-.196-.592 2.013-1.332 2.215-.74l2.185 6.556c.196.593-2.014 1.333-2.215.74z"/><path fill="#5f3ea7" d="M36.613 30.619c-.865.533-1.587 1.06-2.097 2.037.74.9 1.718 1.398 2.784 1.261.87-1.09.415-2.345-.693-3.298z"/><path fill="#6f4bbb" d="M37.288 32.11c-.13-.379-.362-.728-.664-1.071-.663.426-1.214.888-1.628 1.557.461.048 1.178-.077 2.292-.492z"/><path fill="#5f3ea7" d="M37.448 33.242c-.865.533-1.587 1.06-2.097 2.037.74.9 1.718 1.398 2.783 1.262.871-1.09.415-2.345-.692-3.299z"/><path fill="#6f4bbb" d="M38.123 34.633c-.13-.379-.362-.728-.664-1.071-.663.426-1.214.888-1.629 1.558.462.047 1.18-.078 2.293-.492z"/><path fill="#5f3ea7" d="M32.93 33.503c.822-.207 1.557-.337 2.44-.07.106.965-.16 1.841-.86 2.403-1.16-.106-1.646-1.113-1.575-2.327z"/><path fill="#6f4bbb" d="M33.433 34.67c-.154-.297-.225-.64-.255-1.02.64-.148 1.239-.213 1.884-.07-.243.301-.735.663-1.623 1.089h-.006"/><path fill="#393f4c" d="M31.277 15.754a7.96 7.96 0 1 0 .901 15.896 7.96 7.96 0 0 0-.901-15.896"/><path fill="#d3e8ef" d="M31.336 16.737a6.976 6.976 0 1 0 .795 13.93 6.976 6.976 0 0 0-.795-13.93"/><path fill="#fff" d="M37.033 27.154a6.323 6.323 0 0 0-3.606-9.553c-.208 2.398-.42 4.762-.646 7.184.853.337 3.044 1.427 4.258 2.369zM31.235 17.512a6.06 6.06 0 0 0-5.472 7.764c-.012-.094-.017-.195-.023-.296a7.044 7.044 0 0 1 6.627-7.426h.03a6.2 6.2 0 0 0-1.155-.042z"/><path fill="#999" d="M25.757 27.307q.194.322.415.616l2.055-2.848 4.737 1.971 2.748-5.673 2.754.527a8 8 0 0 0-.248-.758l-2.896-.557-2.695 5.566-4.637-1.93-2.233 3.09z"/><path fill="#1ec185" d="M28.031 23.21a1.436 1.436 0 1 1 .164 2.867 1.436 1.436 0 0 1-.164-2.868"/><path fill="#ea4e64" d="M35.44 19.543a1.436 1.436 0 1 1 .164 2.868 1.436 1.436 0 0 1-.164-2.868"/><path fill="#ff893a" d="M32.716 25.164a1.436 1.436 0 1 1 .164 2.865 1.436 1.436 0 0 1-.164-2.865"/></g><defs><clipPath id="a"><path fill="#fff" d="M0 0h40v40H0z"/></clipPath></defs></svg>