<svg xmlns="http://www.w3.org/2000/svg" width="40" height="40" fill="none"><path fill="url(#a)" d="m36.766 22.587.072-12.73a4.3 4.3 0 0 0-2.567-3.958L21.674.363A4.35 4.35 0 0 0 19.923 0c-.597 0-1.194.117-1.753.363L5.567 5.899A4.3 4.3 0 0 0 3 9.856l.078 12.73c0 .096 0 .185-.01.28-.085 1.177-.235 10.537 15.241 16.827a4.1 4.1 0 0 0 1.613.307c.547 0 1.094-.1 1.613-.307 15.476-6.29 15.326-15.65 15.242-16.827-.006-.095-.011-.184-.011-.28"/><path fill="#fff" d="m31.057 8.857 1.204.443c.29.109.29.516 0 .625l-1.204.443a.36.36 0 0 0-.2.2l-.443 1.203a.333.333 0 0 1-.624 0l-.444-1.203a.36.36 0 0 0-.199-.2l-1.204-.443a.333.333 0 0 1 0-.625l1.204-.443a.36.36 0 0 0 .2-.2l.443-1.203a.333.333 0 0 1 .624 0l.444 1.204c.036.09.108.163.199.199"/><mask id="b" width="4" height="4" x="8" y="28" maskUnits="userSpaceOnUse" style="mask-type:luminance"><path fill="#fff" d="M11.201 28.5H8.53v2.672h2.672z"/></mask><g mask="url(#b)"><path fill="#fff" d="m10.402 29.411.677.25a.187.187 0 0 1 0 .35l-.677.25a.2.2 0 0 0-.112.112l-.249.677a.187.187 0 0 1-.351 0l-.25-.677a.2.2 0 0 0-.112-.112l-.676-.25a.187.187 0 0 1 0-.35l.676-.25a.2.2 0 0 0 .112-.112l.25-.677a.187.187 0 0 1 .351 0l.25.677c.02.051.06.092.111.112"/></g><mask id="c" width="20" height="20" x="10" y="10" maskUnits="userSpaceOnUse" style="mask-type:luminance"><path fill="#fff" d="M29.755 10.094h-19.63v19.63h19.63z"/></mask><g fill="#fff" mask="url(#c)"><path d="M25.039 17.618c1.953 2.306 3.223 4.648 3.684 6.643a9.781 9.781 0 0 0-1.156-10.52l-2.466 2.478a1.03 1.03 0 0 0-.057 1.394zM19.162 14.986c-2.901-2.032-5.327-2.482-6.11-1.72l-.02.02c-.891.922-.17 4.104 2.773 7.71a1.04 1.04 0 0 0 1.533.073l2.14-2.15c1.125-1.13.985-3.016-.32-3.933zM15.84 25.51l-2.04 2.047a9.75 9.75 0 0 0 9.555 1.534c-1.871-.555-4.011-1.798-6.11-3.638a1.033 1.033 0 0 0-1.41.052zM14.468 22.619c-1.876-2.229-3.12-4.483-3.607-6.431a9.789 9.789 0 0 0 1.467 9.908l2.077-2.083c.379-.379.405-.985.063-1.394M22.163 19.168l-3.389 3.404a1.04 1.04 0 0 0 .057 1.518c3.56 3.042 6.736 3.82 7.659 2.923l.02-.02c.897-.928.166-4.13-2.808-7.758a1.036 1.036 0 0 0-1.534-.067zM23.66 14.727l2.441-2.452a9.772 9.772 0 0 0-10.385-1.218c1.97.467 4.27 1.752 6.535 3.721.41.358 1.026.332 1.41-.052"/></g><defs><linearGradient id="a" x1="8.059" x2="31.713" y1="0" y2="40.039" gradientUnits="userSpaceOnUse"><stop offset=".159" stop-color="#9718e7"/><stop offset="1" stop-color="#5a2ed4"/></linearGradient></defs></svg>