<svg xmlns="http://www.w3.org/2000/svg" width="40" height="40" fill="none"><path fill="#fe544f" fill-rule="evenodd" d="M35.182 18.707C35.182 8.437 28.45.114 20.146.114S5.106 8.438 5.106 18.707c0 9.843 6.168 17.875 13.978 18.548l-.83 2.63 5.208-.442-1.828-2.234c7.604-.923 13.548-8.853 13.548-18.503" clip-rule="evenodd"/><path fill="#fff" fill-rule="evenodd" d="m23.73 6.65.724 7.467 7.498.216-5.424 5.043 4.284 6.196-7.217-1.357-2.187 7.217-3.323-6.462-6.707 3.073 2.58-6.928-6.542-3.3 7.003-2.252-1.932-6.899 6.625 3.777z" clip-rule="evenodd"/></svg>