<svg xmlns="http://www.w3.org/2000/svg" width="40" height="40" fill="none"><path fill="#fe4715" d="M38.47 16.72h-1.12c-.103 0-.205-.034-.34-.034a5.6 5.6 0 0 1-1.258-.475c-.102-.068-.204-.102-.272-.17-.034-.034-.102-.068-.136-.102-.068-.034-.102-.068-.17-.136a6 6 0 0 1-.476-.442l-.034-.034a2 2 0 0 1-.238-.306c-.101-.136-.17-.272-.271-.408-.102-.203-.204-.407-.306-.645-.034-.136-.102-.272-.136-.408-.034-.102-.034-.204-.068-.272.034-.102 0-.238 0-.374v-.102c0-.407.034-.781.136-1.155.17-.578.442-1.122.748-1.632.067-.067.135-.135.17-.237l.611-.646c.51-.51.544-1.36.068-1.903a17 17 0 0 0-2.039-2.107L12.744 25.455c-.34.305-.883.102-.883-.374.034-3.569.102-9.652.136-12.71 0-.51.68-.68.951-.239l2.141 3.739c.17.306.578.34.816.102l9.55-9.55s-.034 0-.034-.034c-.136-.068-.238-.136-.374-.204-.068-.068-.17-.102-.238-.17-.102-.068-.204-.17-.306-.238l-.068-.068c-.306-.305-.51-.611-.714-.951a6 6 0 0 1-.611-1.801c-.034-.102-.034-.238-.068-.34V1.529A1.45 1.45 0 0 0 21.716.068 30 30 0 0 0 19.983 0c-.544 0-1.121.034-1.665.068a1.44 1.44 0 0 0-1.326 1.427c0 .442-.034.952-.136 1.462a6 6 0 0 1-.611 1.8q-.255.51-.714.918l-.068.068c-.102.102-.204.17-.306.238-.068.068-.17.102-.238.17-.136.068-.238.136-.373.204-.204.102-.442.204-.646.238a1.2 1.2 0 0 1-.476.102c-.136.034-.238.034-.374.034h-.68c-.067 0-.135 0-.203-.034-.069 0-.136-.034-.17-.034-.102-.034-.204-.034-.306-.068a6.6 6.6 0 0 1-1.224-.51 3 3 0 0 1-.543-.374c-.068-.068-.136-.102-.204-.17l-.68-.713c-.51-.544-1.393-.612-1.971-.136a20 20 0 0 0-2.515 2.549 1.45 1.45 0 0 0 .068 1.903l.612.646a.6.6 0 0 1 .17.237c.305.476.611 1.054.747 1.632.102.374.136.748.136 1.155v.102c0 .136-.034.238-.034.374a.64.64 0 0 1-.068.272 2 2 0 0 1-.136.408c-.068.238-.17.441-.306.645-.068.136-.17.272-.271.408-.068.102-.17.204-.238.306l-.034.034c-.136.17-.306.306-.476.442-.068.034-.102.102-.17.136-.034.034-.102.068-.136.102-.102.068-.204.102-.272.17a5.6 5.6 0 0 1-1.257.476c-.102 0-.204.034-.34.034H1.427c-.713 0-1.359.543-1.427 1.29.034.647 0 1.326 0 1.972 0 .544.034 1.087.068 1.631.068.748.646 1.326 1.393 1.326l1.02.034c.102 0 .204 0 .306.034.408.102.781.238 1.155.407.34.17.646.408.952.68l.068.068c.102.102.17.204.238.272s.136.136.17.238c.068.136.17.238.237.374.102.204.204.407.272.645.068.17.102.306.136.476.034.136.034.238.068.374v.034c.034.204.034.442 0 .646v.204c0 .068 0 .136-.034.17-.034.102-.034.203-.068.305-.102.442-.272.85-.475 1.224a1.4 1.4 0 0 1-.238.374c-.068.068-.102.17-.204.238l-.646.713a1.45 1.45 0 0 0-.136 1.903c.714.918 1.53 1.768 2.379 2.515l20.935-20.56c.34-.306.883-.102.883.373-.034 3.569-.102 9.652-.136 12.71 0 .51-.68.68-.951.239L25.25 23.89a.514.514 0 0 0-.816-.102l-9.957 9.958s.034 0 .034.034c.101.068.203.136.305.238l.034.034c.17.136.306.272.442.442.034.068.102.101.136.17.034.033.068.101.102.135.068.102.102.17.17.272q.357.561.51 1.224c.204.747.272 1.495.272 2.14 0 .748.577 1.36 1.291 1.428s1.461.136 2.209.136 1.461-.034 2.21-.136a1.44 1.44 0 0 0 1.29-1.427c0-.646.068-1.428.272-2.141q.153-.612.51-1.224c.068-.102.102-.17.17-.272.034-.034.068-.102.102-.136.034-.068.102-.102.136-.17.136-.17.272-.305.442-.441l.034-.034c.102-.068.204-.17.305-.238.136-.102.273-.17.442-.238.204-.102.408-.204.646-.272l.408-.102c.102-.034.204-.034.306-.034.136 0 .238-.034.374-.034h.102c.407 0 .781.068 1.155.17q.764.255 1.427.714c.068.068.17.136.238.204l.714.747a1.464 1.464 0 0 0 1.971.102 20 20 0 0 0 2.481-2.617 1.45 1.45 0 0 0-.136-1.903l-.646-.645c-.068-.068-.136-.136-.204-.238-.068-.136-.17-.238-.237-.374a4.8 4.8 0 0 1-.476-1.224c-.034-.102-.068-.203-.068-.305 0-.068-.034-.136-.034-.17v-.884c0-.136.034-.238.068-.374.034-.17.068-.306.136-.476.068-.203.17-.441.271-.645.069-.136.136-.238.238-.374.068-.068.102-.17.17-.238.068-.102.17-.204.238-.272l.068-.068c.272-.272.612-.51.952-.68.374-.203.748-.34 1.155-.407.102-.034.204-.034.306-.034l1.02-.034a1.46 1.46 0 0 0 1.393-1.326c.034-.544.068-1.087.068-1.631 0-.68-.034-1.325-.102-1.971-.102-.85-.714-1.394-1.427-1.427"/></svg>