<svg xmlns="http://www.w3.org/2000/svg" width="40" height="40" fill="none"><g clip-path="url(#a)"><mask id="b" width="40" height="40" x="0" y="0" maskUnits="userSpaceOnUse" style="mask-type:luminance"><path fill="#fff" d="M40 0H0v40h40z"/></mask><g mask="url(#b)"><path fill="#fff" d="M20 40c11.046 0 20-8.954 20-20S31.046 0 20 0 0 8.954 0 20s8.954 20 20 20"/><path fill="#005ae0" fill-rule="evenodd" d="M20 40c11.046 0 20-8.954 20-20S31.046 0 20 0 0 8.954 0 20s8.954 20 20 20M16.815 7.32c-.27-.413-.772-.606-1.233-.443q-.786.278-1.535.652c-.437.218-.656.718-.56 1.205l.343 1.735c.088.447-.094.9-.44 1.188-.547.455-1.052.97-1.504 1.54-.281.354-.725.541-1.163.453l-1.701-.344a1.06 1.06 0 0 0-1.18.577 14 14 0 0 0-.633 1.567c-.158.47.033.982.439 1.257l1.444.98c.372.252.558.704.513 1.157-.073.73-.07 1.458.004 2.174.047.453-.137.906-.508 1.16l-1.442.984a1.1 1.1 0 0 0-.434 1.258q.272.803.639 1.566c.214.447.703.67 1.18.572l1.702-.35c.437-.09.882.096 1.164.45.446.557.95 1.073 1.508 1.534.347.287.531.74.445 1.187l-.337 1.736c-.095.488.126.986.565 1.203a14 14 0 0 0 1.536.646c.761.267 1.827-.687 2.616-1.393.388-.348.628-.84.63-1.367v-2.912q0-.046.004-.091c-2.328-.568-4.059-2.705-4.059-5.254v-3.083a.42.42 0 0 1 .416-.424h1.442v-3.033a.75.75 0 0 1 .743-.758c.41 0 .743.34.743.758v3.033h3.901v-3.033a.75.75 0 0 1 .743-.758c.41 0 .743.34.743.758v3.033h1.442c.23 0 .416.19.416.424v3.082c0 2.63-1.842 4.822-4.281 5.304v2.932c0 .538.247 1.04.648 1.389.802.7 1.886 1.645 2.643 1.377a13.5 13.5 0 0 0 1.535-.652c.438-.218.657-.718.56-1.205l-.342-1.735c-.088-.447.094-.9.44-1.188.547-.455 1.052-.97 1.504-1.54.281-.354.725-.541 1.163-.453l1.701.344c.478.097.967-.13 1.18-.577a14 14 0 0 0 .633-1.567 1.1 1.1 0 0 0-.439-1.257l-1.444-.98c-.373-.252-.558-.704-.513-1.157.073-.73.07-1.458-.004-2.174-.047-.453.137-.906.508-1.16l1.442-.984c.404-.277.593-.789.434-1.258a14 14 0 0 0-.639-1.566 1.06 1.06 0 0 0-1.18-.572l-1.702.35c-.437.09-.882-.096-1.164-.45a10.5 10.5 0 0 0-1.508-1.534 1.24 1.24 0 0 1-.445-1.187l.337-1.736c.095-.488-.127-.986-.565-1.203a14 14 0 0 0-1.536-.646c-.46-.162-.962.033-1.232.447l-.96 1.474c-.247.38-.69.569-1.134.523a10 10 0 0 0-2.13.005 1.2 1.2 0 0 1-1.136-.519z" clip-rule="evenodd"/></g></g><defs><clipPath id="a"><path fill="#fff" d="M0 0h40v40H0z"/></clipPath></defs></svg>