<svg xmlns="http://www.w3.org/2000/svg" width="552" height="551" viewBox="0 0 552 551"><g><path d="M 312.00 542.46 C299.62,544.34 266.23,545.23 253.68,544.01 C219.25,540.67 186.45,531.27 156.05,516.03 C82.52,479.16 29.27,410.22 13.07,330.89 C5.69,294.79 5.86,255.36 13.56,218.90 C34.04,121.89 111.74,41.22 208.50,16.51 C289.28,-4.12 374.01,12.87 439.40,62.83 C459.47,78.16 484.80,104.94 498.67,125.50 C531.22,173.71 546.53,226.78 544.69,285.00 C543.41,325.45 534.37,360.67 515.93,397.06 C475.72,476.38 402.26,528.76 312.00,542.46 ZM 256.33 508.91 C322.67,514.82 388.61,491.49 437.53,444.79 C473.89,410.07 496.68,368.03 506.72,317.15 C509.25,304.32 509.41,301.85 509.40,276.00 C509.38,250.36 509.20,247.59 506.73,235.00 C501.92,210.49 495.40,191.04 485.36,171.25 C459.50,120.32 415.62,80.34 362.26,59.11 C313.48,39.70 256.24,37.66 206.10,53.55 C169.94,65.01 140.40,82.83 112.65,109.93 C98.25,123.99 91.19,132.46 80.33,148.72 C29.02,225.56 29.57,328.59 81.72,405.83 C104.81,440.03 136.07,467.19 173.50,485.56 C200.22,498.67 227.37,506.32 256.33,508.91 ZM 292.44 353.07 C290.74,354.95 288.40,355.00 208.50,355.00 C128.64,355.00 126.26,354.95 124.57,353.07 C123.61,352.02 122.98,350.33 123.17,349.32 C123.47,347.78 124.70,347.46 131.26,347.21 L 139.00 346.92 L 139.00 336.65 C139.00,329.99 139.44,325.80 140.25,324.72 C141.21,323.44 143.47,322.99 149.95,322.78 L 158.40 322.50 L 163.17 294.00 C165.78,278.33 171.55,243.23 175.98,216.00 C180.42,188.77 184.29,165.26 184.60,163.75 C185.11,161.23 184.91,161.00 182.10,161.00 C177.27,161.00 176.31,158.28 176.95,146.50 L 177.50 136.50 L 204.00 135.94 L 204.00 128.54 C204.00,121.16 205.31,117.98 208.32,118.02 C211.86,118.06 212.66,120.29 212.89,130.75 L 213.00 136.00 L 225.30 136.00 C233.53,136.00 238.00,136.40 238.80,137.20 C240.44,138.84 240.44,158.16 238.80,159.80 C238.14,160.46 236.34,161.00 234.80,161.00 C232.78,161.00 232.01,161.49 232.04,162.75 C232.06,163.71 238.05,200.05 245.34,243.50 L 258.60 322.50 L 267.34 322.79 C275.65,323.06 276.13,323.20 277.04,325.60 C277.57,326.99 278.00,332.38 278.00,337.57 L 278.00 347.00 L 285.43 347.00 C292.07,347.00 292.94,347.22 293.52,349.07 C293.94,350.39 293.55,351.84 292.44,353.07 ZM 200.65 431.49 C195.42,439.56 193.25,441.22 191.17,438.71 C189.04,436.14 163.04,368.05 163.62,366.55 C163.93,365.73 165.61,364.84 167.35,364.57 C172.93,363.72 213.03,360.93 228.63,360.30 C243.58,359.71 243.78,359.73 244.97,361.94 C246.19,364.22 245.30,365.87 235.58,379.30 C233.11,382.70 233.17,382.75 244.75,386.96 C260.22,392.59 271.47,394.38 291.00,394.34 C306.64,394.30 309.55,394.02 318.37,391.68 C336.85,386.77 351.18,377.87 359.06,366.42 C360.68,364.06 362.00,361.88 362.00,361.57 C362.00,361.26 357.95,361.00 353.00,361.00 C345.30,361.00 343.71,360.71 341.98,358.98 C341.43,358.43 340.99,358.03 340.78,357.53 C340.01,355.71 342.18,352.65 353.04,337.30 L 353.96 336.00 C360.38,326.92 369.89,313.42 375.09,306.00 C381.10,297.42 384.00,292.73 387.07,292.61 C390.32,292.49 393.76,297.49 401.30,308.43 C402.08,309.55 402.90,310.74 403.77,312.00 C434.82,356.89 435.29,357.71 431.07,359.96 C430.00,360.53 424.44,361.00 418.71,361.00 L 408.30 361.00 L 406.51 367.75 C401.45,386.91 387.26,405.44 367.50,418.69 C329.32,444.30 265.77,446.70 218.02,424.34 C216.95,423.84 216.02,423.39 215.18,422.98 C212.01,421.44 210.29,420.60 208.84,420.94 C206.73,421.44 205.21,424.46 200.65,431.49 ZM 360.80 302.80 C359.08,304.52 279.92,304.52 278.20,302.80 C277.40,302.00 277.00,297.67 277.00,289.91 C277.00,277.05 277.03,277.00 283.47,277.00 C285.30,277.00 287.00,276.43 287.27,275.74 C287.54,275.04 289.86,261.43 292.44,245.49 C298.33,208.95 298.92,204.07 301.05,203.27 C301.57,203.07 302.19,203.12 303.00,203.00 L 306.50 202.50 L 306.78 191.06 C306.94,184.73 307.55,179.04 308.16,178.31 C309.61,176.56 329.07,176.47 330.80,178.20 C331.60,179.00 332.00,183.36 332.00,191.20 L 332.00 203.00 L 335.53 203.00 C339.60,203.00 339.65,203.09 341.31,213.06 L 342.55 220.50 L 347.08 220.80 C351.38,221.08 351.87,220.82 357.15,215.55 C363.01,209.69 365.93,208.73 369.56,211.47 C372.37,213.60 374.00,213.33 374.00,210.72 C374.00,209.47 374.70,207.44 375.56,206.22 C376.94,204.24 377.98,204.00 385.02,204.00 C393.43,204.00 395.00,204.92 395.00,209.88 C395.00,212.69 396.80,213.49 398.89,211.60 C402.23,208.58 406.17,209.59 411.29,214.78 C416.36,219.94 417.15,222.92 414.44,226.78 C412.67,229.31 413.27,231.00 415.95,231.00 C416.95,231.00 418.75,231.79 419.94,232.75 C421.86,234.31 422.07,235.32 421.80,241.97 C421.48,249.84 421.02,250.53 414.72,252.43 C413.06,252.92 413.05,253.19 414.47,255.93 C416.77,260.39 416.42,261.64 411.36,267.04 C406.49,272.26 403.84,273.10 400.44,270.53 C397.46,268.28 396.22,268.70 395.46,272.25 C394.34,277.52 393.45,278.00 384.93,278.00 C377.99,278.00 376.94,277.75 375.56,275.78 C374.70,274.56 374.00,272.70 374.00,271.66 C374.00,270.10 373.52,269.88 371.25,270.44 C363.75,272.29 363.74,272.29 357.75,266.53 C349.78,258.87 349.04,259.09 350.62,268.75 C351.32,273.01 351.92,276.61 351.95,276.75 C351.98,276.89 353.54,277.00 355.43,277.00 C361.19,277.00 362.00,278.71 362.00,290.87 C362.00,297.88 361.58,302.02 360.80,302.80 ZM 274.31 430.97 C300.63,433.51 331.53,428.33 352.17,417.92 C377.08,405.36 394.94,384.18 399.64,361.64 C400.44,357.80 401.33,354.28 401.61,353.82 C401.89,353.37 406.11,353.00 411.00,353.00 C415.89,353.00 420.09,352.66 420.34,352.25 C420.89,351.36 388.95,304.77 387.50,304.34 C386.95,304.18 385.34,305.72 383.93,307.77 C382.52,309.82 374.98,320.57 367.18,331.65 C359.38,342.73 353.00,352.07 353.00,352.40 C353.00,352.73 357.27,353.00 362.48,353.00 C371.68,353.00 371.98,353.07 372.57,355.42 C373.68,359.86 367.61,370.46 359.12,378.91 C350.15,387.85 343.66,391.87 330.88,396.44 C316.51,401.58 303.56,403.39 286.08,402.71 C264.92,401.90 245.15,397.41 231.11,390.25 C222.36,385.78 222.12,384.71 227.95,375.97 C230.67,371.90 232.76,368.43 232.60,368.27 C232.44,368.10 223.35,368.65 212.40,369.48 C201.46,370.30 188.33,371.28 183.23,371.64 C174.41,372.27 173.99,372.40 174.60,374.40 C175.68,377.92 192.87,421.95 193.85,423.69 C194.59,425.02 195.69,423.92 199.65,417.91 C202.67,413.34 205.32,410.39 206.58,410.21 C207.69,410.04 212.41,411.93 217.05,414.40 C232.94,422.83 254.45,429.06 274.31,430.97 ZM 296.02 275.75 C296.01,276.72 301.42,277.00 319.83,277.00 L 343.67 277.00 L 332.61 211.00 L 306.32 211.00 L 304.18 224.25 C303.01,231.54 300.69,245.82 299.04,256.00 C297.39,266.17 296.03,275.06 296.02,275.75 ZM 381.66 267.05 C382.18,269.63 382.68,270.06 384.88,269.80 C386.86,269.57 387.61,268.81 388.00,266.67 C388.40,264.43 389.51,263.41 393.39,261.74 C397.96,259.76 398.46,259.73 401.07,261.22 C403.67,262.72 403.96,262.70 405.58,260.91 C407.19,259.13 407.20,258.87 405.65,257.17 C403.52,254.81 403.57,253.76 406.04,248.93 C407.53,246.01 408.87,244.78 411.04,244.34 C413.31,243.89 414.00,243.20 414.00,241.40 C414.00,239.60 413.25,238.86 410.76,238.22 C408.16,237.54 407.14,236.47 405.61,232.79 C403.73,228.25 403.81,227.15 406.23,223.77 C407.24,222.35 407.16,221.73 405.77,220.34 C404.18,218.75 403.88,218.75 400.79,220.40 C397.61,222.10 397.34,222.09 392.75,220.12 C388.58,218.32 388.00,217.70 388.00,215.04 C388.00,212.35 387.67,212.00 385.08,212.00 C382.66,212.00 382.05,212.51 381.52,214.93 C380.80,218.20 380.11,218.85 374.82,221.24 C371.29,222.83 371.04,222.82 368.49,220.81 L 365.83 218.72 L 363.73 220.83 C361.75,222.81 361.72,223.04 363.31,224.79 C366.76,228.61 363.62,236.84 358.19,238.24 C355.54,238.92 354.94,239.53 355.19,241.29 C355.41,242.85 356.37,243.63 358.50,243.99 C360.89,244.40 361.96,245.46 363.74,249.19 C365.90,253.72 365.92,253.98 364.24,256.90 C362.66,259.67 362.64,260.07 364.09,261.51 C365.53,262.96 365.94,262.94 368.77,261.32 C371.79,259.59 371.99,259.60 376.46,261.77 C380.04,263.51 381.18,264.67 381.66,267.05 ZM 148.00 330.98 L 148.00 347.00 L 269.08 347.00 L 268.79 339.25 L 268.50 331.50 ZM 393.74 254.07 C386.59,259.25 378.15,257.72 371.71,250.06 C368.21,245.90 367.89,237.54 371.04,232.44 C373.91,227.79 380.84,224.61 386.68,225.27 C401.39,226.93 405.88,245.28 393.74,254.07 ZM 285.00 286.30 L 285.00 296.00 L 354.00 296.00 L 354.00 286.29 L 346.35 285.65 C336.53,284.82 303.95,284.82 293.25,285.65 ZM 168.00 314.70 C168.00,315.18 193.96,294.19 197.75,290.65 C199.54,288.97 201.00,287.27 201.00,286.86 C201.00,285.58 176.81,267.00 175.89,267.57 C175.40,267.87 175.00,269.10 175.00,270.31 C175.00,271.51 173.42,281.92 171.50,293.44 C169.57,304.95 168.00,314.52 168.00,314.70 ZM 231.23 300.69 C245.59,312.33 249.00,314.83 249.00,313.71 C249.00,313.20 242.01,273.63 241.39,270.68 C241.03,268.93 240.32,268.05 239.52,268.35 C238.13,268.89 223.64,280.00 218.23,284.67 L 214.96 287.50 ZM 212.67 322.33 C213.69,323.36 245.20,323.13 244.56,322.10 C243.88,321.00 213.16,296.00 212.49,296.00 C211.74,296.00 211.91,321.58 212.67,322.33 ZM 173.04 321.64 C171.80,322.79 174.06,323.00 187.79,323.00 L 204.00 323.00 L 204.00 310.00 C204.00,302.85 203.76,297.00 203.47,297.00 C202.99,297.00 176.34,318.57 173.04,321.64 ZM 185.00 144.00 L 185.00 153.00 L 232.00 153.00 L 232.00 144.00 ZM 179.00 247.81 C179.00,248.05 179.56,247.82 180.25,247.29 C180.94,246.77 185.89,243.06 191.25,239.06 C196.61,235.05 201.00,231.42 201.00,230.99 C201.00,230.01 184.80,217.86 184.24,218.43 C183.91,218.76 179.00,246.27 179.00,247.81 ZM 226.14 239.36 C231.76,243.56 236.76,247.00 237.25,247.00 C237.74,247.00 237.90,246.21 237.61,245.25 C237.32,244.29 236.13,237.88 234.98,231.02 C233.82,224.16 232.69,218.35 232.46,218.12 C231.91,217.57 216.71,229.38 216.27,230.70 C216.08,231.27 220.52,235.16 226.14,239.36 ZM 379.63 246.93 C383.49,249.96 387.31,249.60 390.41,245.92 C393.39,242.38 393.57,240.99 391.54,237.07 C389.15,232.45 384.05,231.60 379.63,235.07 C375.91,238.00 375.91,244.00 379.63,246.93 ZM 212.67 254.33 C213.51,255.18 230.45,255.22 231.29,254.38 C231.97,253.70 214.50,240.00 212.96,240.00 C211.89,240.00 211.62,253.29 212.67,254.33 ZM 212.00 270.50 C212.00,274.62 212.42,278.00 212.93,278.00 C213.64,278.00 223.74,270.20 231.92,263.35 C232.15,263.16 227.76,263.00 222.17,263.00 L 212.00 263.00 ZM 188.48 191.00 L 187.97 194.50 L 194.98 187.16 C198.84,183.12 202.00,179.51 202.00,179.14 C202.00,178.27 192.86,167.81 192.45,168.21 C192.17,168.50 189.69,182.73 188.48,191.00 ZM 220.51 186.01 C224.32,189.85 227.73,193.00 228.08,193.00 C228.84,193.00 225.03,170.81 224.08,169.76 C223.71,169.35 221.20,171.26 218.49,174.01 L 213.56 179.01 ZM 185.04 254.25 C185.02,254.66 189.27,255.00 194.50,255.00 L 204.00 255.00 L 204.00 247.42 C204.00,243.25 203.66,239.98 203.24,240.17 C201.34,241.00 185.08,253.58 185.04,254.25 ZM 315.00 185.00 L 315.00 203.11 L 323.50 202.50 L 324.08 185.00 ZM 194.07 270.50 C199.15,274.62 203.46,278.00 203.65,278.00 C203.84,278.00 204.00,274.62 204.00,270.50 L 204.00 263.00 L 184.83 263.00 ZM 212.67 204.33 C213.53,205.20 224.46,205.20 225.33,204.33 C225.93,203.74 214.61,190.99 212.75,190.17 C211.82,189.75 211.74,203.41 212.67,204.33 ZM 191.66 204.25 C191.91,204.66 194.79,205.00 198.06,205.00 L 204.00 205.00 L 203.97 197.25 L 203.95 189.50 L 197.58 196.50 C194.07,200.35 191.41,203.84 191.66,204.25 ZM 212.00 217.50 C212.00,219.98 212.37,222.00 212.83,222.00 C213.28,222.00 216.26,219.98 219.45,217.50 L 225.24 213.00 L 212.00 213.00 ZM 197.66 217.79 L 203.50 222.07 L 203.81 217.93 C203.98,215.66 203.92,213.59 203.68,213.34 C203.43,213.10 200.66,213.03 197.52,213.20 L 191.82 213.50 ZM 345.25 238.31 C346.45,245.22 346.51,245.32 346.76,241.00 C347.23,233.11 347.70,232.15 351.52,231.43 C357.32,230.34 356.51,229.00 350.06,229.00 C346.47,229.00 344.00,229.43 344.00,230.06 C344.00,230.64 344.56,234.35 345.25,238.31 ZM 212.00 164.50 C212.00,166.43 212.40,168.00 212.88,168.00 C213.37,168.00 214.96,166.43 216.43,164.50 L 219.10 161.00 L 215.55 161.00 C212.16,161.00 212.00,161.16 212.00,164.50 ZM 200.81 165.25 C202.99,167.80 204.00,167.40 204.00,164.00 C204.00,161.32 203.67,161.00 200.94,161.00 C197.75,161.00 197.73,161.67 200.81,165.25 ZM 348.25 252.34 C350.33,253.18 351.85,253.06 352.50,252.00 C352.84,251.45 352.45,251.00 351.63,251.00 C350.81,251.00 349.44,250.29 348.57,249.43 C347.14,248.00 347.00,248.04 347.00,249.85 C347.00,250.94 347.56,252.06 348.25,252.34 Z" fill="rgb(2,2,2)"></path><path d="M 0.00 275.50 L 0.00 0.00 L 276.00 0.00 L 552.00 0.00 L 552.00 275.50 L 552.00 551.00 L 276.00 551.00 L 0.00 551.00 L 0.00 275.50 ZM 312.00 542.46 C402.26,528.76 475.72,476.38 515.93,397.06 C534.37,360.67 543.41,325.45 544.69,285.00 C546.53,226.78 531.22,173.71 498.67,125.50 C484.80,104.94 459.47,78.16 439.40,62.83 C374.01,12.87 289.28,-4.12 208.50,16.51 C111.74,41.22 34.04,121.89 13.56,218.90 C5.86,255.36 5.69,294.79 13.07,330.89 C29.27,410.22 82.52,479.16 156.05,516.03 C186.45,531.27 219.25,540.67 253.68,544.01 C266.23,545.23 299.62,544.34 312.00,542.46 ZM 256.33 508.91 C227.37,506.32 200.22,498.67 173.50,485.56 C136.07,467.19 104.81,440.03 81.72,405.83 C29.57,328.59 29.02,225.56 80.33,148.72 C91.19,132.46 98.25,123.99 112.65,109.93 C140.40,82.83 169.94,65.01 206.10,53.55 C256.24,37.66 313.48,39.70 362.26,59.11 C415.62,80.34 459.50,120.32 485.36,171.25 C495.40,191.04 501.92,210.49 506.73,235.00 C509.20,247.59 509.38,250.36 509.40,276.00 C509.41,301.85 509.25,304.32 506.72,317.15 C496.68,368.03 473.89,410.07 437.53,444.79 C388.61,491.49 322.67,514.82 256.33,508.91 ZM 200.65 431.49 C209.15,418.37 207.08,419.22 218.02,424.34 C265.77,446.70 329.32,444.30 367.50,418.69 C387.26,405.44 401.45,386.91 406.51,367.75 L 408.30 361.00 L 418.71 361.00 C424.44,361.00 430.00,360.53 431.07,359.96 C435.29,357.71 434.82,356.89 403.77,312.00 C386.52,287.07 388.12,287.41 375.09,306.00 C369.89,313.42 360.38,326.92 353.96,336.00 C339.15,356.92 339.42,356.42 341.98,358.98 C343.71,360.71 345.30,361.00 353.00,361.00 C357.95,361.00 362.00,361.26 362.00,361.57 C362.00,361.88 360.68,364.06 359.06,366.42 C351.18,377.87 336.85,386.77 318.37,391.68 C309.55,394.02 306.64,394.30 291.00,394.34 C271.47,394.38 260.22,392.59 244.75,386.96 C233.17,382.75 233.11,382.70 235.58,379.30 C245.30,365.87 246.19,364.22 244.97,361.94 C243.78,359.73 243.58,359.71 228.63,360.30 C213.03,360.93 172.93,363.72 167.35,364.57 C165.61,364.84 163.93,365.73 163.62,366.55 C163.04,368.05 189.04,436.14 191.17,438.71 C193.25,441.22 195.42,439.56 200.65,431.49 ZM 292.44 353.07 C293.55,351.84 293.94,350.39 293.52,349.07 C292.94,347.22 292.07,347.00 285.43,347.00 L 278.00 347.00 L 278.00 337.57 C278.00,332.38 277.57,326.99 277.04,325.60 C276.13,323.20 275.65,323.06 267.34,322.79 L 258.60 322.50 L 245.34 243.50 C238.05,200.05 232.06,163.71 232.04,162.75 C232.01,161.49 232.78,161.00 234.80,161.00 C236.34,161.00 238.14,160.46 238.80,159.80 C240.44,158.16 240.44,138.84 238.80,137.20 C238.00,136.40 233.53,136.00 225.30,136.00 L 213.00 136.00 L 212.89 130.75 C212.66,120.29 211.86,118.06 208.32,118.02 C205.31,117.98 204.00,121.16 204.00,128.54 L 204.00 135.94 L 190.75 136.22 L 177.50 136.50 L 176.95 146.50 C176.31,158.28 177.27,161.00 182.10,161.00 C184.91,161.00 185.11,161.23 184.60,163.75 C184.29,165.26 180.42,188.77 175.98,216.00 C171.55,243.23 165.78,278.33 163.17,294.00 L 158.40 322.50 L 149.95 322.78 C143.47,322.99 141.21,323.44 140.25,324.72 C139.44,325.80 139.00,329.99 139.00,336.65 L 139.00 346.92 L 131.26 347.21 C124.70,347.46 123.47,347.78 123.17,349.32 C122.98,350.33 123.61,352.02 124.57,353.07 C126.26,354.95 128.64,355.00 208.50,355.00 C288.40,355.00 290.74,354.95 292.44,353.07 ZM 360.80 302.80 C361.58,302.02 362.00,297.88 362.00,290.87 C362.00,278.71 361.19,277.00 355.43,277.00 C353.54,277.00 351.98,276.89 351.95,276.75 C351.92,276.61 351.32,273.01 350.62,268.75 C349.04,259.09 349.78,258.87 357.75,266.53 C363.74,272.29 363.75,272.29 371.25,270.44 C373.52,269.88 374.00,270.10 374.00,271.66 C374.00,272.70 374.70,274.56 375.56,275.78 C376.94,277.75 377.99,278.00 384.93,278.00 C393.45,278.00 394.34,277.52 395.46,272.25 C396.22,268.70 397.46,268.28 400.44,270.53 C403.84,273.10 406.49,272.26 411.36,267.04 C416.42,261.64 416.77,260.39 414.47,255.93 C413.05,253.19 413.06,252.92 414.72,252.43 C421.02,250.53 421.48,249.84 421.80,241.97 C422.07,235.32 421.86,234.31 419.94,232.75 C418.75,231.79 416.95,231.00 415.95,231.00 C413.27,231.00 412.67,229.31 414.44,226.78 C417.15,222.92 416.36,219.94 411.29,214.78 C406.17,209.59 402.23,208.58 398.89,211.60 C396.80,213.49 395.00,212.69 395.00,209.88 C395.00,204.92 393.43,204.00 385.02,204.00 C377.98,204.00 376.94,204.24 375.56,206.22 C374.70,207.44 374.00,209.47 374.00,210.72 C374.00,213.33 372.37,213.60 369.56,211.47 C365.93,208.73 363.01,209.69 357.15,215.55 C351.87,220.82 351.38,221.08 347.08,220.80 L 342.55 220.50 L 341.31 213.06 C339.65,203.09 339.60,203.00 335.53,203.00 L 332.00 203.00 L 332.00 191.20 C332.00,183.36 331.60,179.00 330.80,178.20 C329.07,176.47 309.61,176.56 308.16,178.31 C307.55,179.04 306.94,184.73 306.78,191.06 L 306.50 202.50 L 303.00 203.00 C298.89,203.59 299.79,199.97 292.44,245.49 C289.86,261.43 287.54,275.04 287.27,275.74 C287.00,276.43 285.30,277.00 283.47,277.00 C277.03,277.00 277.00,277.05 277.00,289.91 C277.00,297.67 277.40,302.00 278.20,302.80 C279.92,304.52 359.08,304.52 360.80,302.80 ZM 274.31 430.97 C254.45,429.06 232.94,422.83 217.05,414.40 C212.41,411.93 207.69,410.04 206.58,410.21 C205.32,410.39 202.67,413.34 199.65,417.91 C195.69,423.92 194.59,425.02 193.85,423.69 C192.87,421.95 175.68,377.92 174.60,374.40 C173.99,372.40 174.41,372.27 183.23,371.64 C188.33,371.28 201.46,370.30 212.40,369.48 C223.35,368.65 232.44,368.10 232.60,368.27 C232.76,368.43 230.67,371.90 227.95,375.97 C222.12,384.71 222.36,385.78 231.11,390.25 C245.15,397.41 264.92,401.90 286.08,402.71 C303.56,403.39 316.51,401.58 330.88,396.44 C343.66,391.87 350.15,387.85 359.12,378.91 C367.61,370.46 373.68,359.86 372.57,355.42 C371.98,353.07 371.68,353.00 362.48,353.00 C357.27,353.00 353.00,352.73 353.00,352.40 C353.00,352.07 359.38,342.73 367.18,331.65 C374.98,320.57 382.52,309.82 383.93,307.77 C385.34,305.72 386.95,304.18 387.50,304.34 C388.95,304.77 420.89,351.36 420.34,352.25 C420.09,352.66 415.89,353.00 411.00,353.00 C406.11,353.00 401.89,353.37 401.61,353.82 C401.33,354.28 400.44,357.80 399.64,361.64 C394.94,384.18 377.08,405.36 352.17,417.92 C331.53,428.33 300.63,433.51 274.31,430.97 ZM 148.00 338.99 L 148.00 330.98 L 208.25 331.24 L 268.50 331.50 L 268.79 339.25 L 269.08 347.00 L 208.54 347.00 L 148.00 347.00 L 148.00 338.99 ZM 173.04 321.64 C176.34,318.57 202.99,297.00 203.47,297.00 C203.76,297.00 204.00,302.85 204.00,310.00 L 204.00 323.00 L 187.79 323.00 C174.06,323.00 171.80,322.79 173.04,321.64 ZM 212.67 322.33 C211.91,321.58 211.74,296.00 212.49,296.00 C213.16,296.00 243.88,321.00 244.56,322.10 C245.20,323.13 213.69,323.36 212.67,322.33 ZM 168.00 314.70 C168.00,314.52 169.57,304.95 171.50,293.44 C173.42,281.92 175.00,271.51 175.00,270.31 C175.00,269.10 175.40,267.87 175.89,267.57 C176.81,267.00 201.00,285.58 201.00,286.86 C201.00,287.27 199.54,288.97 197.75,290.65 C193.96,294.19 168.00,315.18 168.00,314.70 ZM 231.23 300.69 L 214.96 287.50 L 218.23 284.67 C223.64,280.00 238.13,268.89 239.52,268.35 C240.32,268.05 241.03,268.93 241.39,270.68 C242.01,273.63 249.00,313.20 249.00,313.71 C249.00,314.83 245.59,312.33 231.23,300.69 ZM 194.07 270.50 L 184.83 263.00 L 194.41 263.00 L 204.00 263.00 L 204.00 270.50 C204.00,274.62 203.84,278.00 203.65,278.00 C203.46,278.00 199.15,274.62 194.07,270.50 ZM 212.00 270.50 L 212.00 263.00 L 222.17 263.00 C227.76,263.00 232.15,263.16 231.92,263.35 C223.74,270.20 213.64,278.00 212.93,278.00 C212.42,278.00 212.00,274.62 212.00,270.50 ZM 185.04 254.25 C185.08,253.58 201.34,241.00 203.24,240.17 C203.66,239.98 204.00,243.25 204.00,247.42 L 204.00 255.00 L 194.50 255.00 C189.27,255.00 185.02,254.66 185.04,254.25 ZM 212.67 254.33 C211.62,253.29 211.89,240.00 212.96,240.00 C214.50,240.00 231.97,253.70 231.29,254.38 C230.45,255.22 213.51,255.18 212.67,254.33 ZM 179.00 247.81 C179.00,246.27 183.91,218.76 184.24,218.43 C184.80,217.86 201.00,230.01 201.00,230.99 C201.00,231.42 196.61,235.05 191.25,239.06 C185.89,243.06 180.94,246.77 180.25,247.29 C179.56,247.82 179.00,248.05 179.00,247.81 ZM 226.14 239.36 C220.52,235.16 216.08,231.27 216.27,230.70 C216.71,229.38 231.91,217.57 232.46,218.12 C232.69,218.35 233.82,224.16 234.98,231.02 C236.13,237.88 237.32,244.29 237.61,245.25 C237.90,246.21 237.74,247.00 237.25,247.00 C236.76,247.00 231.76,243.56 226.14,239.36 ZM 197.66 217.79 L 191.82 213.50 L 197.52 213.20 C200.66,213.03 203.43,213.10 203.68,213.34 C203.92,213.59 203.98,215.66 203.81,217.93 L 203.50 222.07 L 197.66 217.79 ZM 212.00 217.50 L 212.00 213.00 L 218.62 213.00 L 225.24 213.00 L 219.45 217.50 C216.26,219.98 213.28,222.00 212.83,222.00 C212.37,222.00 212.00,219.98 212.00,217.50 ZM 191.66 204.25 C191.41,203.84 194.07,200.35 197.58,196.50 L 203.95 189.50 L 203.97 197.25 L 204.00 205.00 L 198.06 205.00 C194.79,205.00 191.91,204.66 191.66,204.25 ZM 212.67 204.33 C211.74,203.41 211.82,189.75 212.75,190.17 C214.61,190.99 225.93,203.74 225.33,204.33 C224.46,205.20 213.53,205.20 212.67,204.33 ZM 188.48 191.00 C189.69,182.73 192.17,168.50 192.45,168.21 C192.86,167.81 202.00,178.27 202.00,179.14 C202.00,179.51 198.84,183.12 194.98,187.16 L 187.97 194.50 L 188.48 191.00 ZM 220.51 186.01 L 213.56 179.01 L 218.49 174.01 C221.20,171.26 223.71,169.35 224.08,169.76 C225.03,170.81 228.84,193.00 228.08,193.00 C227.73,193.00 224.32,189.85 220.51,186.01 ZM 212.00 164.50 C212.00,161.16 212.16,161.00 215.55,161.00 L 219.10 161.00 L 216.43 164.50 C214.96,166.43 213.37,168.00 212.88,168.00 C212.40,168.00 212.00,166.43 212.00,164.50 ZM 200.81 165.25 C197.73,161.67 197.75,161.00 200.94,161.00 C203.67,161.00 204.00,161.32 204.00,164.00 C204.00,167.40 202.99,167.80 200.81,165.25 ZM 185.00 148.50 L 185.00 144.00 L 208.50 144.00 L 232.00 144.00 L 232.00 148.50 L 232.00 153.00 L 208.50 153.00 L 185.00 153.00 L 185.00 148.50 ZM 285.00 291.15 L 285.00 286.30 L 293.25 285.65 C303.95,284.82 336.53,284.82 346.35,285.65 L 354.00 286.29 L 354.00 291.15 L 354.00 296.00 L 319.50 296.00 L 285.00 296.00 L 285.00 291.15 ZM 296.02 275.75 C296.03,275.06 297.39,266.17 299.04,256.00 C300.69,245.82 303.01,231.54 304.18,224.25 L 306.32 211.00 L 319.47 211.00 L 332.61 211.00 L 338.14 244.00 L 343.67 277.00 L 319.83 277.00 C301.42,277.00 296.01,276.72 296.02,275.75 ZM 381.66 267.05 C381.18,264.67 380.04,263.51 376.46,261.77 C371.99,259.60 371.79,259.59 368.77,261.32 C365.94,262.94 365.53,262.96 364.09,261.51 C362.64,260.07 362.66,259.67 364.24,256.90 C365.92,253.98 365.90,253.72 363.74,249.19 C361.96,245.46 360.89,244.40 358.50,243.99 C356.37,243.63 355.41,242.85 355.19,241.29 C354.94,239.53 355.54,238.92 358.19,238.24 C363.62,236.84 366.76,228.61 363.31,224.79 C361.72,223.04 361.75,222.81 363.73,220.83 L 365.83 218.72 L 368.49 220.81 C371.04,222.82 371.29,222.83 374.82,221.24 C380.11,218.85 380.80,218.20 381.52,214.93 C382.05,212.51 382.66,212.00 385.08,212.00 C387.67,212.00 388.00,212.35 388.00,215.04 C388.00,217.70 388.58,218.32 392.75,220.12 C397.34,222.09 397.61,222.10 400.79,220.40 C403.88,218.75 404.18,218.75 405.77,220.34 C407.16,221.73 407.24,222.35 406.23,223.77 C403.81,227.15 403.73,228.25 405.61,232.79 C407.14,236.47 408.16,237.54 410.76,238.22 C413.25,238.86 414.00,239.60 414.00,241.40 C414.00,243.20 413.31,243.89 411.04,244.34 C408.87,244.78 407.53,246.01 406.04,248.93 C403.57,253.76 403.52,254.81 405.65,257.17 C407.20,258.87 407.19,259.13 405.58,260.91 C403.96,262.70 403.67,262.72 401.07,261.22 C398.46,259.73 397.96,259.76 393.39,261.74 C389.51,263.41 388.40,264.43 388.00,266.67 C387.61,268.81 386.86,269.57 384.88,269.80 C382.68,270.06 382.18,269.63 381.66,267.05 ZM 393.74 254.07 C405.88,245.28 401.39,226.93 386.68,225.27 C380.84,224.61 373.91,227.79 371.04,232.44 C367.89,237.54 368.21,245.90 371.71,250.06 C378.15,257.72 386.59,259.25 393.74,254.07 ZM 348.25 252.34 C347.56,252.06 347.00,250.94 347.00,249.85 C347.00,248.04 347.14,248.00 348.57,249.43 C349.44,250.29 350.81,251.00 351.63,251.00 C352.45,251.00 352.84,251.45 352.50,252.00 C351.85,253.06 350.33,253.18 348.25,252.34 ZM 345.25 238.31 C344.56,234.35 344.00,230.64 344.00,230.06 C344.00,229.43 346.47,229.00 350.06,229.00 C356.51,229.00 357.32,230.34 351.52,231.43 C347.70,232.15 347.23,233.11 346.76,241.00 C346.51,245.32 346.45,245.22 345.25,238.31 ZM 315.00 194.06 L 315.00 185.00 L 319.54 185.00 L 324.08 185.00 L 323.79 193.75 L 323.50 202.50 L 319.25 202.81 L 315.00 203.11 L 315.00 194.06 ZM 379.63 246.93 C375.91,244.00 375.91,238.00 379.63,235.07 C384.05,231.60 389.15,232.45 391.54,237.07 C393.57,240.99 393.39,242.38 390.41,245.92 C387.31,249.60 383.49,249.96 379.63,246.93 Z" fill="rgb(254,254,254)"></path></g></svg>