<svg width="128" height="152" viewBox="0 0 128 152" fill="none" xmlns="http://www.w3.org/2000/svg">
<g clip-path="url(#clip0_875_13)">
<path d="M139 -12H-11V162H139V-12Z" fill="white"/>
<path d="M128 0H-1V25H128V0Z" fill="#F0F1F6"/>
<path d="M128 127H-1V152H128V127Z" fill="#F0F1F6"/>
<path d="M30 31H-1V71H30V31Z" fill="#2271B1"/>
<path d="M39 31H-1V71H39V31Z" fill="#ADAFB7"/>
<path d="M128 31H88V71H128V31Z" fill="#F0F1F6"/>
<path d="M84 31H44V71H84V31Z" fill="#F0F1F6"/>
<path d="M39 80H-1V120H39V80Z" fill="#F0F1F6"/>
<path d="M128 80H88V120H128V80Z" fill="#F0F1F6"/>
<path d="M84 80H44V120H84V80Z" fill="#F0F1F6"/>
</g>
<defs>
<clipPath id="clip0_875_13">
<rect width="128" height="152" fill="white"/>
</clipPath>
</defs>
</svg>
