<svg width="124" height="152" viewBox="0 0 124 152" fill="none" xmlns="http://www.w3.org/2000/svg">
<g clip-path="url(#clip0_875_24)">
<path d="M137 -12H-13V162H137V-12Z" fill="white"/>
<path d="M126 31H-3V121H126V31Z" fill="#ADAFB7"/>
<path d="M126 0H-3V25H126V0Z" fill="#F0F1F6"/>
<path d="M126 127H-3V152H126V127Z" fill="#F0F1F6"/>
<path d="M51.5835 95.833C50.4377 95.833 49.4564 95.425 48.6397 94.608C47.8231 93.792 47.4154 92.811 47.4168 91.667C47.4168 90.521 47.8252 89.539 48.6418 88.723C49.4585 87.9061 50.4391 87.4985 51.5835 87.4998C52.7293 87.4998 53.7106 87.9082 54.5272 88.725C55.3439 89.542 55.7516 90.522 55.7502 91.667C55.7502 92.812 55.3418 93.794 54.5252 94.61C53.7085 95.427 52.7279 95.835 51.5835 95.833ZM72.4168 95.833C71.271 95.833 70.2897 95.425 69.4731 94.608C68.6564 93.792 68.2488 92.811 68.2502 91.667C68.2502 90.521 68.6585 89.539 69.4752 88.723C70.2918 87.9061 71.2724 87.4985 72.4168 87.4998C73.5627 87.4998 74.5439 87.9082 75.3606 88.725C76.1772 89.542 76.5849 90.522 76.5835 91.667C76.5835 92.812 76.1752 93.794 75.3585 94.61C74.5418 95.427 73.5613 95.835 72.4168 95.833ZM49.8127 62.4998L54.8127 72.9165H69.396L75.1252 62.4998H49.8127ZM51.5835 85.4165C50.021 85.4165 48.8404 84.7304 48.0418 83.3582C47.2432 81.986 47.2085 80.6235 47.9377 79.2707L50.7502 74.1665L43.2502 58.3332H41.1147C40.5245 58.3332 40.0384 58.1332 39.6564 57.7332C39.2745 57.3332 39.0835 56.8387 39.0835 56.2498C39.0835 55.6596 39.2835 55.1644 39.6835 54.7644C40.0835 54.3644 40.5779 54.1651 41.1668 54.1665H44.5522C44.9342 54.1665 45.2988 54.2707 45.646 54.479C45.9932 54.6873 46.2536 54.9825 46.4272 55.3644L47.8335 58.3332H78.5627C79.5002 58.3332 80.1425 58.6804 80.4897 59.3748C80.837 60.0693 80.8196 60.7985 80.4377 61.5623L73.0418 74.8957C72.6599 75.5901 72.1564 76.1283 71.5314 76.5103C70.9064 76.8922 70.1946 77.0832 69.396 77.0832H53.8752L51.5835 81.2498H74.5522C75.1425 81.2498 75.6286 81.4498 76.0106 81.8498C76.3925 82.2498 76.5835 82.7443 76.5835 83.3332C76.5835 83.9235 76.3835 84.4186 75.9835 84.8186C75.5835 85.2186 75.0891 85.4179 74.5002 85.4165H51.5835Z" fill="white"/>
<path fill-rule="evenodd" clip-rule="evenodd" d="M81.341 0H119.279C119.849 0 120.414 0.11234 120.941 0.33061C121.468 0.54888 121.946 0.86879 122.349 1.27208C122.753 1.67537 123.072 2.15413 123.29 2.68101C123.508 3.2079 123.62 3.7726 123.62 4.3428V18.8169C123.62 19.3869 123.508 19.9512 123.29 20.4778C123.072 21.0044 122.752 21.4828 122.349 21.8857C121.946 22.2887 121.467 22.6083 120.94 22.8262C120.414 23.0442 119.849 23.1562 119.279 23.156H105.673L107.535 27.7336L99.316 23.156H81.335C80.185 23.1545 79.083 22.6968 78.2701 21.8833C77.4573 21.0697 77.0005 19.9669 77 18.8169V4.3428C77 3.1913 77.4573 2.087 78.2713 1.27262C79.085 0.45824 80.189 0.00049 81.341 0Z" fill="#7F54B3"/>
<path d="M79.3469 3.9318C79.4909 3.7523 79.6719 3.6066 79.8779 3.5048C80.0839 3.4031 80.3099 3.3478 80.5399 3.3428C81.5069 3.2756 82.0629 3.7318 82.2059 4.7115C82.8029 8.6855 83.4419 12.059 84.1229 14.8318L88.2989 6.8912C88.6769 6.1744 89.1539 5.7952 89.7319 5.7537C90.5679 5.6949 91.0909 6.2276 91.2999 7.3517C91.6929 9.5745 92.2969 11.7548 93.1039 13.8631C93.6049 9.0268 94.4429 5.5304 95.6159 3.374C95.7289 3.1322 95.9059 2.92576 96.1279 2.77704C96.3489 2.62833 96.6079 2.54293 96.8739 2.53005C97.3089 2.49435 97.7399 2.62927 98.0759 2.90617C98.2479 3.0358 98.3889 3.2016 98.4889 3.3919C98.5899 3.5821 98.6469 3.7921 98.6579 4.007C98.6879 4.3242 98.6249 4.6434 98.4739 4.9244C97.7309 6.3041 97.1189 8.5981 96.6399 11.8064C96.1659 14.9034 95.9909 17.3258 96.1149 19.0737C96.1579 19.5021 96.0809 19.9342 95.8929 20.3213C95.8009 20.5167 95.6589 20.6838 95.4799 20.8049C95.3019 20.926 95.0939 20.9967 94.8779 21.0093C94.3749 21.046 93.8749 20.8094 93.3699 20.303C91.5989 18.4866 90.1919 15.7841 89.1499 12.1954C87.9269 14.6416 87.0099 16.4715 86.3979 17.6848C85.2789 19.8376 84.3199 20.9415 83.5209 20.9965C83.0029 21.0332 82.5609 20.5978 82.1969 19.6902C81.2179 17.1986 80.1689 12.3782 79.0479 5.2289C79.0039 5.0038 79.0079 4.7719 79.0589 4.5484C79.1109 4.3249 79.2089 4.1147 79.3469 3.9318Z" fill="white"/>
<path d="M120.299 6.92606C119.984 6.35786 119.548 5.86606 119.022 5.48556C118.496 5.10506 117.892 4.84516 117.254 4.72436C116.913 4.65246 116.567 4.61556 116.219 4.61426C114.394 4.61426 112.903 5.56406 111.746 7.46366C110.76 9.07896 110.247 10.9382 110.265 12.8302C110.265 14.298 110.571 15.556 111.182 16.6042C111.497 17.173 111.933 17.6653 112.46 18.0459C112.987 18.4265 113.591 18.686 114.23 18.8059C114.569 18.8794 114.916 18.9169 115.263 18.9178C117.106 18.9178 118.597 17.968 119.734 16.0685C120.719 14.4416 121.233 12.5727 121.217 10.6708C121.217 9.20296 120.911 7.95476 120.299 6.92606ZM117.896 12.2119C117.635 13.4595 117.152 14.3995 116.446 15.0319C115.887 15.5346 115.375 15.7395 114.909 15.6465C114.443 15.5536 114.069 15.1426 113.788 14.4136C113.572 13.8606 113.458 13.2732 113.452 12.6798C113.45 12.2102 113.497 11.7417 113.591 11.2817C113.773 10.4678 114.115 9.69816 114.597 9.01766C115.23 8.08686 115.892 7.69606 116.582 7.84526C117.048 7.93946 117.421 8.34916 117.701 9.07446C117.916 9.62696 118.029 10.2138 118.035 10.8065C118.038 11.2786 117.991 11.7496 117.896 12.2119Z" fill="white"/>
<path d="M108.359 6.92606C108.044 6.35786 107.608 5.86606 107.081 5.48556C106.555 5.10506 105.951 4.84516 105.313 4.72436C104.973 4.65246 104.626 4.61556 104.278 4.61426C102.452 4.61426 100.962 5.56406 99.8072 7.46366C98.8202 9.07846 98.3072 10.9379 98.3252 12.8302C98.3252 14.298 98.6302 15.556 99.2422 16.6042C99.5562 17.1734 99.9922 17.666 100.519 18.0467C101.046 18.4273 101.651 18.6866 102.289 18.8059C102.629 18.8794 102.975 18.9169 103.322 18.9178C105.167 18.9178 106.658 17.968 107.795 16.0685C108.784 14.4425 109.302 12.5738 109.291 10.6708C109.291 9.20296 108.985 7.95476 108.373 6.92606H108.359ZM105.955 12.2119C105.695 13.462 105.21 14.4032 104.502 15.0356C103.942 15.5383 103.429 15.7431 102.965 15.6502C102.5 15.5572 102.127 15.145 101.847 14.4136C101.632 13.8606 101.518 13.2732 101.512 12.6798C101.51 12.2102 101.557 11.7417 101.651 11.2817C101.834 10.4683 102.176 9.69896 102.656 9.01766C103.288 8.08926 103.949 7.69966 104.642 7.84896C105.108 7.94306 105.48 8.35286 105.759 9.07816C105.974 9.63056 106.088 10.2174 106.095 10.8102C106.097 11.2798 106.05 11.7483 105.955 12.2082V12.2119Z" fill="white"/>
</g>
<defs>
<clipPath id="clip0_875_24">
<rect width="124" height="152" fill="white"/>
</clipPath>
</defs>
</svg>
