<svg width="124" height="152" viewBox="0 0 124 152" fill="none" xmlns="http://www.w3.org/2000/svg">
<g clip-path="url(#clip0_875_34)">
<path d="M137 -12H-13V162H137V-12Z" fill="white"/>
<path d="M126 31H-3V121H126V31Z" fill="#ADAFB7"/>
<path d="M126 0H-3V25H126V0Z" fill="#F0F1F6"/>
<path d="M126 127H-3V152H126V127Z" fill="#F0F1F6"/>
<mask id="mask0_875_34" style="mask-type:luminance" maskUnits="userSpaceOnUse" x="37" y="50" width="50" height="50">
<path d="M87 50H37V100H87V50Z" fill="white"/>
</mask>
<g mask="url(#mask0_875_34)">
<path d="M66.1668 66.6668H46.7224C46.354 66.6668 46.0008 66.5205 45.7403 66.26C45.4798 65.9996 45.3335 65.6463 45.3335 65.2779V59.7224C45.3335 59.354 45.4798 59.0008 45.7403 58.7403C46.0008 58.4798 46.354 58.3335 46.7224 58.3335H66.1668C66.5352 58.3335 66.8885 58.4798 67.1489 58.7403C67.4094 59.0008 67.5557 59.354 67.5557 59.7224V65.2779C67.5557 65.6463 67.4094 65.9996 67.1489 66.26C66.8885 66.5205 66.5352 66.6668 66.1668 66.6668ZM48.1113 63.8891H64.7779V61.0279H48.1113V63.8891Z" fill="white"/>
<path d="M66.1668 69.5557H46.7224C46.354 69.5557 46.0008 69.702 45.7403 69.9625C45.4798 70.2229 45.3335 70.5762 45.3335 70.9446V76.389C45.3335 76.7574 45.4798 77.1106 45.7403 77.3711C46.0008 77.6316 46.354 77.7779 46.7224 77.7779H62.5002L67.5557 72.639V70.9446C67.5557 70.5762 67.4094 70.2229 67.1489 69.9625C66.8885 69.702 66.5352 69.5557 66.1668 69.5557ZM64.7779 75.0001H48.1113V72.2223H64.7779V75.0001Z" fill="white"/>
<path d="M52.3612 93.764V93.681L52.8056 91.75H42.5556V55.5556H70.3334V69.7917L73.1112 67.1667V54.1667C73.1112 53.7984 72.9648 53.4451 72.7044 53.1846C72.4439 52.9242 72.0906 52.7778 71.7223 52.7778H41.1667C40.7984 52.7778 40.4451 52.9242 40.1846 53.1846C39.9242 53.4451 39.7778 53.7984 39.7778 54.1667V93.056C39.7778 93.424 39.9242 93.777 40.1846 94.038C40.4451 94.298 40.7984 94.445 41.1667 94.445H52.2778C52.2893 94.216 52.3171 93.989 52.3612 93.764Z" fill="white"/>
<path d="M67.5555 76.625L66.4722 77.7222C66.7409 77.6668 66.9873 77.533 67.1801 77.3378C67.3729 77.1425 67.5035 76.8945 67.5555 76.625Z" fill="white"/>
<path d="M45.3335 87.4168C45.3335 87.7851 45.4798 88.138 45.7403 88.399C46.0008 88.659 46.354 88.806 46.7224 88.806H53.4446L53.8613 87.0001L54.0418 86.2362V86.1668H48.1113V83.3334H56.9168L59.6946 80.5557H46.7224C46.354 80.5557 46.0008 80.702 45.7403 80.9625C45.4798 81.2229 45.3335 81.5762 45.3335 81.9446V87.4168Z" fill="white"/>
<path d="M83.5137 73.1526L78.8331 68.4721C78.6254 68.2638 78.3786 68.0985 78.1069 67.9857C77.8352 67.873 77.5439 67.8149 77.2498 67.8149C76.9556 67.8149 76.6643 67.873 76.3926 67.9857C76.1209 68.0985 75.8742 68.2638 75.6664 68.4721L56.6248 87.6248L55.0553 94.305C54.9966 94.594 54.9952 94.891 55.0514 95.179C55.1076 95.468 55.2202 95.743 55.3828 95.988C55.5454 96.233 55.7547 96.444 55.9988 96.608C56.2429 96.772 56.517 96.886 56.8053 96.944C56.9485 96.959 57.0927 96.959 57.2359 96.944C57.4061 96.972 57.5796 96.972 57.7498 96.944L64.4859 95.458L83.5137 76.3887C83.7215 76.1822 83.8865 75.9366 83.9991 75.666C84.1116 75.3955 84.1696 75.1054 84.1696 74.8123C84.1696 74.5193 84.1116 74.2292 83.9991 73.9586C83.8865 73.6881 83.7215 73.4425 83.5137 73.2359V73.1526ZM63.0692 92.93L57.9859 94.055L59.222 89.014L73.4998 74.5832L77.4164 78.4998L63.0692 92.93ZM78.9859 76.9304L75.0692 73.0137L77.2775 70.8332L81.222 74.7776L78.9859 76.9304Z" fill="white"/>
</g>
<path fill-rule="evenodd" clip-rule="evenodd" d="M81.341 0H119.279C119.849 0 120.414 0.11234 120.941 0.33061C121.468 0.54888 121.946 0.86879 122.349 1.27208C122.753 1.67537 123.072 2.15413 123.29 2.68101C123.508 3.2079 123.62 3.7726 123.62 4.3428V18.8169C123.62 19.3869 123.508 19.9512 123.29 20.4778C123.072 21.0044 122.752 21.4828 122.349 21.8857C121.946 22.2887 121.467 22.6083 120.94 22.8262C120.414 23.0442 119.849 23.1562 119.279 23.156H105.673L107.535 27.7336L99.316 23.156H81.335C80.185 23.1545 79.083 22.6968 78.2701 21.8833C77.4573 21.0697 77.0005 19.9669 77 18.8169V4.3428C77 3.1913 77.4573 2.087 78.2713 1.27262C79.085 0.45824 80.189 0.00049 81.341 0Z" fill="#7F54B3"/>
<path d="M79.3469 3.9318C79.4909 3.7523 79.6719 3.6066 79.8779 3.5048C80.0839 3.4031 80.3099 3.3478 80.5399 3.3428C81.5069 3.2756 82.0629 3.7318 82.2059 4.7115C82.8029 8.6855 83.4419 12.059 84.1229 14.8318L88.2989 6.8912C88.6769 6.1744 89.1539 5.7952 89.7319 5.7537C90.5679 5.6949 91.0909 6.2276 91.2999 7.3517C91.6929 9.5745 92.2969 11.7548 93.1039 13.8631C93.6049 9.0268 94.4429 5.5304 95.6159 3.374C95.7289 3.1322 95.9059 2.92576 96.1279 2.77704C96.3489 2.62833 96.6079 2.54293 96.8739 2.53005C97.3089 2.49435 97.7399 2.62927 98.0759 2.90617C98.2479 3.0358 98.3889 3.2016 98.4889 3.3919C98.5899 3.5821 98.6469 3.7921 98.6579 4.007C98.6879 4.3242 98.6249 4.6434 98.4739 4.9244C97.7309 6.3041 97.1189 8.5981 96.6399 11.8064C96.1659 14.9034 95.9909 17.3258 96.1149 19.0737C96.1579 19.5021 96.0809 19.9342 95.8929 20.3213C95.8009 20.5167 95.6589 20.6838 95.4799 20.8049C95.3019 20.926 95.0939 20.9967 94.8779 21.0093C94.3749 21.046 93.8749 20.8094 93.3699 20.303C91.5989 18.4866 90.1919 15.7841 89.1499 12.1954C87.9269 14.6416 87.0099 16.4715 86.3979 17.6848C85.2789 19.8376 84.3199 20.9415 83.5209 20.9965C83.0029 21.0332 82.5609 20.5978 82.1969 19.6902C81.2179 17.1986 80.1689 12.3782 79.0479 5.2289C79.0039 5.0038 79.0079 4.7719 79.0589 4.5484C79.1109 4.3249 79.2089 4.1147 79.3469 3.9318Z" fill="white"/>
<path d="M120.299 6.92606C119.984 6.35786 119.548 5.86606 119.022 5.48556C118.496 5.10506 117.892 4.84516 117.254 4.72436C116.913 4.65246 116.567 4.61556 116.219 4.61426C114.394 4.61426 112.903 5.56406 111.746 7.46366C110.76 9.07896 110.247 10.9382 110.265 12.8302C110.265 14.298 110.571 15.556 111.182 16.6042C111.497 17.173 111.933 17.6653 112.46 18.0459C112.987 18.4265 113.591 18.686 114.23 18.8059C114.569 18.8794 114.916 18.9169 115.263 18.9178C117.106 18.9178 118.597 17.968 119.734 16.0685C120.719 14.4416 121.233 12.5727 121.217 10.6708C121.217 9.20296 120.911 7.95476 120.299 6.92606ZM117.896 12.2119C117.635 13.4595 117.152 14.3995 116.446 15.0319C115.887 15.5346 115.375 15.7395 114.909 15.6465C114.443 15.5536 114.069 15.1426 113.788 14.4136C113.572 13.8606 113.458 13.2732 113.452 12.6798C113.45 12.2102 113.497 11.7417 113.591 11.2817C113.773 10.4678 114.115 9.69816 114.597 9.01766C115.23 8.08686 115.892 7.69606 116.582 7.84526C117.048 7.93946 117.421 8.34916 117.701 9.07446C117.916 9.62696 118.029 10.2138 118.035 10.8065C118.038 11.2786 117.991 11.7496 117.896 12.2119Z" fill="white"/>
<path d="M108.359 6.92606C108.044 6.35786 107.608 5.86606 107.081 5.48556C106.555 5.10506 105.951 4.84516 105.313 4.72436C104.973 4.65246 104.626 4.61556 104.278 4.61426C102.452 4.61426 100.962 5.56406 99.8072 7.46366C98.8202 9.07846 98.3072 10.9379 98.3252 12.8302C98.3252 14.298 98.6302 15.556 99.2422 16.6042C99.5562 17.1734 99.9922 17.666 100.519 18.0467C101.046 18.4273 101.651 18.6866 102.289 18.8059C102.629 18.8794 102.975 18.9169 103.322 18.9178C105.167 18.9178 106.658 17.968 107.795 16.0685C108.784 14.4425 109.302 12.5738 109.291 10.6708C109.291 9.20296 108.985 7.95476 108.373 6.92606H108.359ZM105.955 12.2119C105.695 13.462 105.21 14.4032 104.502 15.0356C103.942 15.5383 103.429 15.7431 102.965 15.6502C102.5 15.5572 102.127 15.145 101.847 14.4136C101.632 13.8606 101.518 13.2732 101.512 12.6798C101.51 12.2102 101.557 11.7417 101.651 11.2817C101.834 10.4683 102.176 9.69896 102.656 9.01766C103.288 8.08926 103.949 7.69966 104.642 7.84896C105.108 7.94306 105.48 8.35286 105.759 9.07816C105.974 9.63056 106.088 10.2174 106.095 10.8102C106.097 11.2798 106.05 11.7483 105.955 12.2082V12.2119Z" fill="white"/>
</g>
<defs>
<clipPath id="clip0_875_34">
<rect width="124" height="152" fill="white"/>
</clipPath>
</defs>
</svg>
