<svg width="128" height="152" viewBox="0 0 128 152" fill="none" xmlns="http://www.w3.org/2000/svg">
<g clip-path="url(#clip0_875_60)">
<path d="M139 -12H-11V162H139V-12Z" fill="white"/>
<path d="M128 31H-1V121H128V31Z" fill="#ADAFB7"/>
<path d="M28.7261 83.398V79.0386L39.6565 61.8184H43.415V67.8525H41.1906L34.2999 78.7573V78.9619H49.8326V83.398H28.7261ZM41.2928 88V82.0684L41.3951 80.138V61.8184H46.5855V88H41.2928Z" fill="white"/>
<path d="M63.7864 88.5756C61.5876 88.5666 59.6955 88.0256 58.1103 86.9515C56.5336 85.8777 55.3191 84.3223 54.4668 82.2853C53.6231 80.2484 53.2055 77.7981 53.214 74.9345C53.214 72.0794 53.6359 69.6461 54.4796 67.6348C55.3319 65.6234 56.5464 64.0936 58.1231 63.0453C59.7083 61.9885 61.5961 61.46 63.7864 61.46C65.9768 61.46 67.8603 61.9885 69.437 63.0453C71.0222 64.1021 72.241 65.6362 73.0933 67.6475C73.9455 69.6504 74.3674 72.0794 74.3589 74.9345C74.3589 77.8066 73.9328 80.2612 73.0805 82.2981C72.2367 84.3351 71.0265 85.8904 69.4498 86.9643C67.8731 88.0386 65.9853 88.5756 63.7864 88.5756ZM63.7864 83.9856C65.2864 83.9856 66.4839 83.2314 67.3788 81.7228C68.2737 80.2143 68.7168 77.9515 68.7083 74.9345C68.7083 72.9487 68.5038 71.2953 68.0947 69.9743C67.6941 68.6532 67.1231 67.6603 66.3816 66.9956C65.6487 66.3308 64.7836 65.9984 63.7864 65.9984C62.295 65.9984 61.1018 66.7441 60.2069 68.2356C59.312 69.7271 58.8603 71.96 58.8518 74.9345C58.8518 76.9458 59.0521 78.6248 59.4526 79.9714C59.8617 81.3095 60.437 82.3152 61.1785 82.9885C61.92 83.6532 62.7893 83.9856 63.7864 83.9856Z" fill="white"/>
<path d="M77.9097 83.398V79.0386L88.8401 61.8184H92.599V67.8525H90.374L83.4835 78.7573V78.9619H99.016V83.398H77.9097ZM90.476 88V82.0684L90.579 80.138V61.8184H95.769V88H90.476Z" fill="white"/>
<path d="M128 0H-1V25H128V0Z" fill="#F0F1F6"/>
<path d="M128 127H-1V152H128V127Z" fill="#F0F1F6"/>
</g>
<defs>
<clipPath id="clip0_875_60">
<rect width="128" height="152" fill="white"/>
</clipPath>
</defs>
</svg>
