<svg width="128" height="152" viewBox="0 0 128 152" fill="none" xmlns="http://www.w3.org/2000/svg">
<g clip-path="url(#clip0_875_80)">
<path d="M139 -12H-11V162H139V-12Z" fill="white"/>
<path d="M96 31H-1V121H96V31Z" fill="#ADAFB7"/>
<path d="M128 31H104V121H128V31Z" fill="#F0F1F6"/>
<path d="M128 0H-1V25H128V0Z" fill="#F0F1F6"/>
<path d="M128 127H-1V152H128V127Z" fill="#F0F1F6"/>
<path fill-rule="evenodd" clip-rule="evenodd" d="M85.341 0H123.279C123.849 0 124.414 0.11234 124.941 0.33061C125.468 0.54888 125.946 0.86879 126.349 1.27208C126.753 1.67537 127.072 2.15413 127.29 2.68101C127.508 3.2079 127.62 3.7726 127.62 4.3428V18.8169C127.62 19.3869 127.508 19.9512 127.29 20.4778C127.072 21.0044 126.752 21.4828 126.349 21.8857C125.946 22.2887 125.467 22.6083 124.94 22.8262C124.414 23.0442 123.849 23.1562 123.279 23.156H109.673L111.535 27.7336L103.316 23.156H85.335C84.185 23.1545 83.083 22.6968 82.2701 21.8833C81.4573 21.0697 81.0005 19.9669 81 18.8169V4.3428C81 3.1913 81.4573 2.087 82.2713 1.27262C83.085 0.45824 84.189 0.00049 85.341 0Z" fill="#7F54B3"/>
<path d="M83.3469 3.9318C83.4909 3.7523 83.6719 3.6066 83.8779 3.5048C84.0839 3.4031 84.3099 3.3478 84.5399 3.3428C85.5069 3.2756 86.0629 3.7318 86.2059 4.7115C86.8029 8.6855 87.4419 12.059 88.1229 14.8318L92.2989 6.8912C92.6769 6.1744 93.1539 5.7952 93.7319 5.7537C94.5679 5.6949 95.0909 6.2276 95.2999 7.3517C95.6929 9.5745 96.2969 11.7548 97.1039 13.8631C97.6049 9.0268 98.4429 5.5304 99.6159 3.374C99.7289 3.1322 99.9059 2.92576 100.128 2.77704C100.349 2.62833 100.608 2.54293 100.874 2.53005C101.309 2.49435 101.74 2.62927 102.076 2.90617C102.248 3.0358 102.389 3.2016 102.489 3.3919C102.59 3.5821 102.647 3.7921 102.658 4.007C102.688 4.3242 102.625 4.6434 102.474 4.9244C101.731 6.3041 101.119 8.5981 100.64 11.8064C100.166 14.9034 99.9909 17.3258 100.115 19.0737C100.158 19.5021 100.081 19.9342 99.8929 20.3213C99.8009 20.5167 99.6589 20.6838 99.4799 20.8049C99.3019 20.926 99.0939 20.9967 98.8779 21.0093C98.3749 21.046 97.8749 20.8094 97.3699 20.303C95.5989 18.4866 94.1919 15.7841 93.1499 12.1954C91.9269 14.6416 91.0099 16.4715 90.3979 17.6848C89.2789 19.8376 88.3199 20.9415 87.5209 20.9965C87.0029 21.0332 86.5609 20.5978 86.1969 19.6902C85.2179 17.1986 84.1689 12.3782 83.0479 5.2289C83.0039 5.0038 83.0079 4.7719 83.0589 4.5484C83.1109 4.3249 83.2089 4.1147 83.3469 3.9318Z" fill="white"/>
<path d="M124.299 6.92606C123.984 6.35786 123.548 5.86606 123.022 5.48556C122.496 5.10506 121.892 4.84516 121.254 4.72436C120.913 4.65246 120.567 4.61556 120.219 4.61426C118.394 4.61426 116.903 5.56406 115.746 7.46366C114.76 9.07896 114.247 10.9382 114.265 12.8302C114.265 14.298 114.571 15.556 115.182 16.6042C115.497 17.173 115.933 17.6653 116.46 18.0459C116.987 18.4265 117.591 18.686 118.23 18.8059C118.569 18.8794 118.916 18.9169 119.263 18.9178C121.106 18.9178 122.597 17.968 123.734 16.0685C124.719 14.4416 125.233 12.5727 125.217 10.6708C125.217 9.20296 124.911 7.95476 124.299 6.92606ZM121.896 12.2119C121.635 13.4595 121.152 14.3995 120.446 15.0319C119.887 15.5346 119.375 15.7395 118.909 15.6465C118.443 15.5536 118.069 15.1426 117.788 14.4136C117.572 13.8606 117.458 13.2732 117.452 12.6798C117.45 12.2102 117.497 11.7417 117.591 11.2817C117.773 10.4678 118.115 9.69816 118.597 9.01766C119.23 8.08686 119.892 7.69606 120.582 7.84526C121.048 7.93946 121.421 8.34916 121.701 9.07446C121.916 9.62696 122.029 10.2138 122.035 10.8065C122.038 11.2786 121.991 11.7496 121.896 12.2119Z" fill="white"/>
<path d="M112.359 6.92606C112.044 6.35786 111.608 5.86606 111.081 5.48556C110.555 5.10506 109.951 4.84516 109.313 4.72436C108.973 4.65246 108.626 4.61556 108.278 4.61426C106.452 4.61426 104.962 5.56406 103.807 7.46366C102.82 9.07846 102.307 10.9379 102.325 12.8302C102.325 14.298 102.63 15.556 103.242 16.6042C103.556 17.1734 103.992 17.666 104.519 18.0467C105.046 18.4273 105.651 18.6866 106.289 18.8059C106.629 18.8794 106.975 18.9169 107.322 18.9178C109.167 18.9178 110.658 17.968 111.795 16.0685C112.784 14.4425 113.302 12.5738 113.291 10.6708C113.291 9.20296 112.985 7.95476 112.373 6.92606H112.359ZM109.955 12.2119C109.695 13.462 109.21 14.4032 108.502 15.0356C107.942 15.5383 107.429 15.7431 106.965 15.6502C106.5 15.5572 106.127 15.145 105.847 14.4136C105.632 13.8606 105.518 13.2732 105.512 12.6798C105.51 12.2102 105.557 11.7417 105.651 11.2817C105.834 10.4683 106.176 9.69896 106.656 9.01766C107.288 8.08926 107.949 7.69966 108.642 7.84896C109.108 7.94306 109.48 8.35286 109.759 9.07816C109.974 9.63056 110.088 10.2174 110.095 10.8102C110.097 11.2798 110.05 11.7483 109.955 12.2082V12.2119Z" fill="white"/>
</g>
<defs>
<clipPath id="clip0_875_80">
<rect width="128" height="152" fill="white"/>
</clipPath>
</defs>
</svg>
